<svg version="1.1" viewBox="0 0 1000 1400" xmlns="http://www.w3.org/2000/svg">
  <style>
      text {
        font-family: sans-serif;
      }
      .external {
        stroke-dasharray: 3pt;
      }
      .caption {
        font-size: 12pt;
        text-anchor: middle;
        dominant-baseline: central;
      }
      .note {
        font-size: 9pt;
        text-anchor: middle;
        dominant-baseline: ideographic;
      }
      .note.left {
        transform: rotate(-90deg);
        text-anchor: start;
      }
      .note.right {
        transform: rotate(90deg);
        text-anchor: start;
      }
      .note.bellow {
        dominant-baseline: hanging;
      }
      .relation {
        fill: none;
        stroke: black;
        stroke-width: 1pt;
      }
      .relation.from-many {
        marker-start: url(#relation-many)
      }
      .relation.to-many {
        marker-end: url(#relation-many)
      }
      .relation.from-optional {
        marker-start: url(#relation-optional)
      }
      .relation.to-optional {
        marker-end: url(#relation-optional)
      }
      .relation.to-link-attribute {
        marker-end: url(#link-attribute)
      }
      .dependency {
        fill: none;
        stroke: black;
        stroke-width: 1pt;
        marker-end: url(#dependency);
      }
  </style>

  <defs>
    <marker id="relation-many" orient="auto-start-reverse" markerWidth="6" markerHeight="6" refX="6" refY="3">
      <circle cx="3" cy="3" r="3" />
    </marker>
    <marker id="relation-optional" orient="auto-start-reverse" markerWidth="6" markerHeight="6" refX="6" refY="3">
      <circle cx="3" cy="3" r="2.5" fill="white" stroke="black" stroke-width="1" />
    </marker>
    <marker id="link-attribute" orient="auto-start-reverse" markerWidth="6" markerHeight="12" refX="6" refY="6">
      <path d="M 6 1 A 2.3 2.7, 0, 0 0, 6 11 L6 1 Z" fill="white" stroke="black" />
    </marker>
    <marker id="dependency" orient="auto-start-reverse" markerWidth="6" markerHeight="6" refX="6" refY="3">
      <polygon points="0,0 6,3 0,6" />
    </marker>
    <g id="model">
      <rect class="box" x="-100" y="-20" width="200" height="40" fill="none" stroke="black" stroke-width="1pt" />
    </g>
    <g id="model-narrow">
      <rect class="box" x="-50" y="-20" width="100" height="40" fill="none" stroke="black" stroke-width="1pt" />
    </g>
  </defs>

  <g transform="translate(100 100)">
    <use href="#model-narrow" class="external"/>
    <text class="caption">User</text>
  </g>
  <g transform="translate(100 200)">
    <use href="#model-narrow" />
    <text class="caption">Inforequest</text>
    <path class="relation from-many to-one" d="M 0,-20 0,-80" />
    <path class="relation from-optional to-many" d="M 0,20 0,180" />
  </g>
  <g transform="translate(150 400)">
    <use href="#model" class="external" />
    <text class="caption">E-mail Message</text>
  </g>
  <g transform="translate(300 100)">
    <use href="#model" />
    <text class="caption">InforequestDraft</text>
    <path class="relation from-many to-one" d="M -100,0 -150,0" />
    <path class="relation from-many to-optional" d="M 0,-20 0,-40 500,-40 500,-20" />
  </g>
  <g transform="translate(300 300)">
    <use href="#model" />
    <text class="caption">InforequestEmail</text>
    <path class="relation from-one to-link-attribute" d="M -100,0 -200,0" />
  </g>
  <g transform="translate(600 100)">
    <use href="#model" />
    <text class="caption">ActionDraft</text>
    <path class="relation from-many to-optional" d="M 0,20 0,80" />
    <path class="relation from-many to-many" d="M 100,0 150,0" />
    <path class="relation from-many to-one" d="M -50,20 -50,40 -475,40 -475,80" />
  </g>
  <g transform="translate(600 200)">
    <use href="#model-narrow" />
    <text class="caption">Branch</text>
    <path class="relation from-many to-one" d="M -50,0 -450,0" />
    <text class="note" x="-65" y="0">1+</text>
    <path class="relation from-many to-one" d="M 25,-20 25,-60 175,-60 175,-80" />
    <path class="relation from-many to-one" d="M 50,0 100,0" />
    <path class="relation from-many to-optional" d="M 25,20 25,180" />
    <text class="note right" x="30" y="-25">Advanced by</text>
  </g>
  <g transform="translate(600 400)">
    <use href="#model-narrow" />
    <text class="caption">Action</text>
    <path class="relation from-many to-one" d="M -25,-20 -25,-180" />
    <text class="note left bellow" x="30" y="-25">1+</text>
    <text class="note left" x="30" y="-25">Contained</text>
    <path class="relation from-optional to-optional" d="M -50,0 -350,0" />
  </g>
  <g transform="translate(800 100)">
    <use href="#model-narrow" class="external" />
    <text class="caption">Obligee</text>
  </g>
  <g transform="translate(800 200)">
    <use href="#model" class="external" />
    <text class="caption">HistoricalObligee</text>
    <path class="external relation from-many to-one" d="M 25,-20 25,-80" />
  </g>

  <g transform="translate(150 500)">
    <use href="#model" class="external" />
    <text class="caption">Attachment</text>
  </g>
  <g transform="translate(350 600)">
    <use href="#model" />
    <text class="caption">InforequestDraft</text>
    <path class="relation from-optional to-many" d="M 0,-20 0,-100 -100,-100" />
  </g>
  <g transform="translate(600 600)">
    <use href="#model" />
    <text class="caption">ActionDraft</text>
    <path class="relation from-optional to-many" d="M 0,-20 0,-100 -350,-100" />
  </g>
  <g transform="translate(800 600)">
    <use href="#model-narrow" />
    <text class="caption">Action</text>
    <path class="relation from-optional to-many" d="M 0,-20 0,-100 -550,-100" />
  </g>

  <g transform="translate(100 700)">
    <use href="#model-narrow" />
    <text class="caption">Action</text>
  </g>
  <g transform="translate(150 800)">
    <use href="#model" />
    <text class="caption">Obligee Action</text>
    <path class="dependency" d="M -75,-20 -75,-80" />
  </g>
  <g transform="translate(200 1150)">
    <use href="#model" />
    <text class="caption">Confirmation</text>
    <path class="dependency" d="M -100,0 -125,0 -125,-330" />
  </g>
  <g transform="translate(150 1225)">
    <use href="#model-narrow" />
    <text class="caption">Extension</text>
    <path class="dependency" d="M -50,0 -75,0 -75,-405" />
  </g>
  <g transform="translate(200 1300)">
    <use href="#model" />
    <text class="caption">Advancement</text>
    <path class="dependency" d="M -100,0 -125,0 -125,-480" />
  </g>
    <g transform="translate(450 800)">
    <use href="#model" />
    <text class="caption">Applicant Action</text>
    <path class="dependency" d="M 0,-20,0,-50 -375,-50 -375,-80" />
  </g>
  <g transform="translate(450 875)">
    <use href="#model-narrow" />
    <text class="caption">Request</text>
    <path class="dependency" d="M -50,0 -75,0, -75,-55" />
  </g>
  <g transform="translate(500 950)">
    <use href="#model" />
    <text class="caption">Clarification Response</text>
    <path class="dependency" d="M -100,0 -125,0, -125,-130" />
  </g>
  <g transform="translate(450 1025)">
    <use href="#model-narrow" />
    <text class="caption">Appeal</text>
    <path class="dependency" d="M -50,0 -75,0, -75,-205" />
  </g>
  <g transform="translate(500 1150)">
    <use href="#model" />
    <text class="caption">Clarification Request</text>
    <path class="dependency" d="M -100,0 -125,0 -125,-50 -425,-50 -425,-330" />
  </g>
  <g transform="translate(450 1225)">
    <use href="#model-narrow" />
    <text class="caption">Disclosure</text>
    <path class="dependency" d="M -50,0 -75,0 -75,-125 -375,-125 -375,-405" />
  </g>
  <g transform="translate(450 1300)">
    <use href="#model-narrow" />
    <text class="caption">Refusal</text>
    <path class="dependency" d="M -50,0 -75,0 -75,-200 -375,-200 -375,-480" />
  </g>
  <g transform="translate(750 800)">
    <use href="#model" />
    <text class="caption">Implicit Action</text>
    <path class="dependency" d="M 0,-20,0,-50 -675,-50 -675,-80" />
  </g>
  <g transform="translate(800 875)">
    <use href="#model" />
    <text class="caption">Advanced Request</text>
    <path class="dependency" d="M -100,0 -125,0, -125,-55" />
  </g>
  <g transform="translate(750 950)">
    <use href="#model-narrow" />
    <text class="caption">Expiration</text>
    <path class="dependency" d="M -50,0 -75,0, -75,-130" />
  </g>
  <g transform="translate(800 1025)">
    <use href="#model" />
    <text class="caption">Appeal Expiration</text>
    <path class="dependency" d="M -100,0 -125,0, -125,-205" />
  </g>
  <g transform="translate(750 1150)">
    <use href="#model-narrow" />
    <text class="caption">Affirmation</text>
    <path class="dependency" d="M -50,0 -75,0 -75,-50 -675,-50 -675,-330" />
  </g>
  <g transform="translate(750 1225)">
    <use href="#model-narrow" />
    <text class="caption">Reversion</text>
    <path class="dependency" d="M -50,0 -75,0 -75,-125 -675,-125 -675,-405" />
  </g>
  <g transform="translate(800 1300)">
    <use href="#model" />
    <text class="caption">Remandment</text>
    <path class="dependency" d="M -100,0 -125,0 -125,-200 -725,-200 -725,-480" />
  </g>
</svg>
