<svg version="1.1" viewBox="0 0 1000 1350" xmlns="http://www.w3.org/2000/svg">
  <style>
      text {
        font-family: sans-serif;
      }
      .external{
        stroke-dasharray: 3pt;
      }
      .caption {
        font-size: 12pt;
        text-anchor: middle;
        dominant-baseline: central;
      }
      .note {
        font-size: 9pt;
        text-anchor: middle;
        dominant-baseline: ideographic;
      }
      .left-rotation{
        transform: rotate(-90deg);
      }
      .right-rotation{
        transform: rotate(90deg);
      }
      .relation {
        fill: none;
        stroke: black;
        stroke-width: 1pt;
      }
      .relation.from-many {
        marker-start: url(#relation-many)
      }
      .relation.to-many {
        marker-end: url(#relation-many)
      }
      .relation.from-optional {
        marker-start: url(#relation-optional)
      }
      .relation.to-optional {
        marker-end: url(#relation-optional)
      }
      .relation.to-link_attribute {
        marker-end: url(#link_attribute)
      }
      .dependency {
        fill: none;
        stroke: black;
        stroke-width: 1pt;
        marker-end: url(#dependency);
      }
  </style>

  <defs>
    <marker id="relation-many" orient="auto-start-reverse" markerWidth="6" markerHeight="6" refX="6" refY="3">
      <circle cx="3" cy="3" r="3" />
    </marker>
    <marker id="relation-optional" orient="auto-start-reverse" markerWidth="6" markerHeight="6" refX="6" refY="3">
      <circle cx="3" cy="3" r="2.5" fill="white" stroke="black" stroke-width="1" />
    </marker>
    <marker id="link_attribute" orient="-90" markerWidth="10" markerHeight="6" refX="5" refY="0">
      <path d="M 1 0.5 A 1.5 2, 0, 0 0, 8.5 0.5" fill="white" stroke="black" />
    </marker>
    <marker id="dependency" markerWidth="6" markerHeight="6" refX="3" refY="0">
      <polygon points="0,6 6,6 3,0" />
    </marker>
    <g id="model">
      <rect class="box" x="-100" y="-20" width="200" height="40" fill="none" stroke="black" stroke-width="1pt" />
    </g>
    <g id="model-narrow">
      <rect class="box" x="-50" y="-20" width="100" height="40" fill="none" stroke="black" stroke-width="1pt" />
    </g>
  </defs>

  <g transform="translate(100 100)">
    <use href="#model-narrow" class="external"/>
    <text class="caption">User</text>
    <path class="relation from-one to-many" d="M 0,20 0,80" />
    <path class="relation from-one to-many" d="M 50,0 100,0" />
  </g>
  <g transform="translate(100 200)">
    <use href="#model-narrow" />
    <text class="caption">Inforequest</text>
    <path class="relation from-optional to-many" d="M 0,20 0,180" />
    <path class="relation from-one to-many" d="M 20,-20 20,-40 450,-40 450,-80" />
    <path class="relation from-one to-many" d="M 50,0 450,0" />
    <text class="note" x="430" y="0">1+</text>
  </g>
  <g transform="translate(150 400)">
    <use href="#model" class="external" />
    <text class="caption">E-mail Message</text>
    <path class="relation from-optional to-optional" d="M 100,0 400,0" />
  </g>
  <g transform="translate(300 100)">
    <use href="#model" />
    <text class="caption">Inforequest Draft</text>
    <path class="relation from-many to-optional" d="M 0,-20 0,-40 500,-40 500,-20" />
  </g>
  <g transform="translate(300 300)">
    <use href="#model" />
    <text class="caption">Inforequest E-mail</text>
    <path class="relation from-one to-link_attribute" d="M -100,0 -200,0" />
  </g>
  <g transform="translate(600 100)">
    <use href="#model" />
    <text class="caption">Action Draft</text>
    <path class="relation from-many to-optional" d="M 0,20 0,80" />
    <path class="relation from-many to-many" d="M 100,0 150,0" />
  </g>
  <g transform="translate(600 200)">
    <use href="#model-narrow" />
    <text class="caption">Branch</text>
    <path class="relation from-many to-one" d="M 25,-20 25,-60 175,-60 175,-80" />
    <path class="relation from-many to-one" d="M 50,0 100,0" />
    <path class="relation from-one to-many" d="M -25,20 -25,180" />
    <text class="note" x="-10" y="180">1+</text>
    <text class="note left-rotation" x="-135" y="-30">Contained</text>
    <path class="relation from-many to-optional" d="M 25,20 25,180" />
    <text class="note right-rotation" x="70" y="-30">Advanced by</text>
  </g>
  <g transform="translate(600 400)">
    <use href="#model-narrow" />
    <text class="caption">Action</text>
  </g>
  <g transform="translate(800 100)">
    <use href="#model-narrow" class="external" />
    <text class="caption">Obligee</text>
    <path class="external relation from-one to-many" d="M 25,20 25,80" />
  </g>
  <g transform="translate(800 200)">
    <use href="#model" class="external" />
    <text class="caption">Historical Obligee</text>
  </g>

  <g transform="translate(150 500)">
    <use href="#model" class="external" />
    <text class="caption">Attachment</text>
  </g>
  <g transform="translate(350 550)">
    <use href="#model" />
    <text class="caption">Inforequest Draft</text>
    <path class="relation from-optional to-many" d="M 0,-20 0,-50 -100,-50" />
  </g>
  <g transform="translate(600 550)">
    <use href="#model" />
    <text class="caption">Action Draft</text>
    <path class="relation from-optional to-many" d="M 0,-20 0,-50 -350,-50" />
  </g>
  <g transform="translate(800 550)">
    <use href="#model-narrow" />
    <text class="caption">Action</text>
    <path class="relation from-optional to-many" d="M 0,-20 0,-50 -550,-50" />
  </g>

  <g transform="translate(100 650)">
    <use href="#model-narrow" />
    <text class="caption">Action</text>
  </g>
  <g transform="translate(150 750)">
    <use href="#model" />
    <text class="caption">Obligee Action</text>
    <path class="dependency" d="M -75,-20 -75,-80" />
  </g>
  <g transform="translate(200 1100)">
    <use href="#model" />
    <text class="caption">Confirmation</text>
    <path class="dependency" d="M -100,0 -125,0 -125,-330" />
  </g>
  <g transform="translate(150 1175)">
    <use href="#model-narrow" />
    <text class="caption">Extension</text>
    <path class="dependency" d="M -50,0 -75,0 -75,-405" />
  </g>
  <g transform="translate(200 1250)">
    <use href="#model" />
    <text class="caption">Advancement</text>
    <path class="dependency" d="M -100,0 -125,0 -125,-480" />
  </g>
    <g transform="translate(450 750)">
    <use href="#model" />
    <text class="caption">Applicant Action</text>
    <path class="dependency" d="M 0,-20,0,-50 -375,-50 -375,-80" />
  </g>
  <g transform="translate(450 825)">
    <use href="#model-narrow" />
    <text class="caption">Request</text>
    <path class="dependency" d="M -50,0 -75,0, -75,-55" />
  </g>
  <g transform="translate(500 900)">
    <use href="#model" />
    <text class="caption">Clarification Response</text>
    <path class="dependency" d="M -100,0 -125,0, -125,-130" />
  </g>
  <g transform="translate(450 975)">
    <use href="#model-narrow" />
    <text class="caption">Appeal</text>
    <path class="dependency" d="M -50,0 -75,0, -75,-205" />
  </g>
  <g transform="translate(500 1100)">
    <use href="#model" />
    <text class="caption">Clarification Request</text>
    <path class="dependency" d="M -100,0 -125,0 -125,-50 -425,-50 -425,-330" />
  </g>
  <g transform="translate(450 1175)">
    <use href="#model-narrow" />
    <text class="caption">Disclosure</text>
    <path class="dependency" d="M -50,0 -75,0 -75,-125 -375,-125 -375,-405" />
  </g>
  <g transform="translate(450 1250)">
    <use href="#model-narrow" />
    <text class="caption">Refusal</text>
    <path class="dependency" d="M -50,0 -75,0 -75,-200 -375,-200 -375,-480" />
  </g>
  <g transform="translate(750 750)">
    <use href="#model" />
    <text class="caption">Implicit Action</text>
    <path class="dependency" d="M 0,-20,0,-50 -675,-50 -675,-80" />
  </g>
  <g transform="translate(800 825)">
    <use href="#model" />
    <text class="caption">Advanced Request</text>
    <path class="dependency" d="M -100,0 -125,0, -125,-55" />
  </g>
  <g transform="translate(750 900)">
    <use href="#model-narrow" />
    <text class="caption">Expiration</text>
    <path class="dependency" d="M -50,0 -75,0, -75,-130" />
  </g>
  <g transform="translate(800 975)">
    <use href="#model" />
    <text class="caption">Appeal Expiration</text>
    <path class="dependency" d="M -100,0 -125,0, -125,-205" />
  </g>
  <g transform="translate(750 1100)">
    <use href="#model-narrow" />
    <text class="caption">Affirmation</text>
    <path class="dependency" d="M -50,0 -75,0 -75,-50 -675,-50 -675,-330" />
  </g>
  <g transform="translate(750 1175)">
    <use href="#model-narrow" />
    <text class="caption">Reversion</text>
    <path class="dependency" d="M -50,0 -75,0 -75,-125 -675,-125 -675,-405" />
  </g>
  <g transform="translate(800 1250)">
    <use href="#model" />
    <text class="caption">Remandment</text>
    <path class="dependency" d="M -100,0 -125,0 -125,-200 -725,-200 -725,-480" />
  </g>
</svg>
