<svg xmlns="http://www.w3.org/2000/svg" viewBox="0 0 1746 1000">
  <path d="M667.325 608.637V217.275h218.6v22.917c0 12.605.456 22.918 1.015 22.918.558 0 9.476-7.943 19.816-17.652 22.08-20.73 53.23-36.45 84.134-42.46 32.173-6.256 102.602-2.585 128.707 6.71 78.13 27.814 133.195 86.527 164.86 175.778 15.37 43.325 21.218 79.985 21.257 133.244.094 130.253-52.276 231.393-141.33 272.947-78.727 36.735-193.652 24.507-253.835-27.008-7.374-6.312-14.344-11.475-15.49-11.475-1.146 0-2.084 55.53-2.084 123.402V1000h-225.65zm357.194 39.614c28.65-15.593 44.95-46.927 51.818-99.617 7.913-60.703-.732-118.83-22.806-153.337-17.19-26.873-34.585-37.495-64.957-39.668-74.8-5.352-110.68 58.82-102.314 182.986 2.293 34.006 4.514 44.892 12.962 63.523 24.277 53.542 76.402 72.726 125.297 46.114zM237.18 818.237c-62.715-13.448-120.895-44.864-160.807-86.83C-6.46 644.305-24.172 490.5 34.353 366.49c19.443-41.197 32.44-60.153 62.974-91.853 57.383-59.57 115.782-82.073 212.863-82.02 57.455.032 83.347 3.72 126.196 17.98 65.065 21.653 132.283 73.99 158.83 123.666 4.794 8.974 4.56 9.707-4.61 14.416-5.315 2.73-29.495 16.187-53.735 29.907-24.24 13.718-58.35 33.01-75.803 42.868-17.453 9.86-32.923 17.93-34.377 17.933-1.454.005-2.664-2.767-2.69-6.16-.07-9.85-20.434-47.386-32.75-60.37-38.758-40.862-109.2-30.872-138.83 19.69-19.036 32.482-30.6 117.527-22.502 165.5 8.145 48.26 36.863 91.584 66.09 99.7 49.68 13.796 94.863-12.85 123.63-72.912 6.733-14.06 12.9-25.562 13.702-25.562.803 0 35.136 18.787 76.295 41.75 41.16 22.962 78.403 43.643 82.765 45.957l7.93 4.21-9.303 18.387c-37.212 73.552-119.377 131.294-212.245 149.155-32.72 6.292-111.22 6.016-141.603-.5zM1411.266 573.38V351.254H1316.07V234.902h96.191l-2.312-44.953c-3.458-67.212 8.06-99.687 48.85-137.75 27.157-25.34 53.723-38.268 96.618-47.014 32.743-6.677 35.955-6.718 93.842-1.207 32.966 3.138 66.68 7.383 74.923 9.434l14.986 3.728v149.81l-30.85-.4c-19.313-.252-35.207 1.436-42.496 4.51-14.056 5.93-24.764 25.07-26.156 46.753l-.984 15.326 53.77.974 53.767.973V351.256h-109.3v444.248h-225.65z" fill="#515457" opacity=".5"/>
</svg>
