<svg xmlns="http://www.w3.org/2000/svg" viewBox="0 0 2000 1000">
  <path d="M782.127 654.678v-12.442c0-215.573-175.477-392.45-391.063-392.45C175.53 249.787 0 426.664 0 642.237v12.442c6.914-208.647 179.634-364.42 391.064-364.42 210.057 0 384.15 155.773 391.063 364.42M923.642 705.275c0 26.748 1.722 30.71 16.52 30.71 11.354 0 15.316 2.304 15.316 7.975 0 4.557-2.24 6.253-10.202 6.253H874.16c-7.936 0-10.227-1.696-10.227-6.253 0-5.67 2.848-6.85 12.52-7.975 12.518-1.14 14.214-5.088 14.214-30.71V479.513c0-29-.582-30.696-11.95-31.835-5.1-.57-7.392-2.253-7.392-5.684 0-4.557 5.127-9.1 18.76-16.48 26.152-14.242 56.317-22.165 84.178-22.165 66.532 0 106.33 46.037 106.33 122.227 0 73.38-36.38 120.57-93.267 120.57-24.443 0-49.47-11.38-49.47-22.746 0-3.96 3.42-6.847 6.837-6.847 2.848 0 3.988.57 10.215 3.987 9.114 5.14 17.66 7.393 27.317 7.393 39.254 0 62.532-39.81 62.532-105.748 0-64.836-26.113-103.52-69.38-103.52-16.443 0-32.406 6.848-41.48 17.646-7.976 9.115-10.255 18.178-10.255 43.773v225.192zM1342.407 524.43c0 72.81-45.468 121.696-113.71 121.696-68.253 0-114.33-48.886-114.33-121.697 0-73.33 45.48-121.09 116.027-121.09 66.545 0 112.013 49.47 112.013 121.09m-192.204 0c0 63.683 30.71 104.672 79.026 104.672 47.77 0 77.367-40.99 77.367-105.787 0-64.28-29.596-102.938-77.9-102.938-46.66 0-78.494 42.077-78.494 104.052M1421.12 430.617c20.468-18.747 43.176-27.266 71.66-27.266 21.024 0 38.683 5.09 50.05 15.317 13.633 11.367 17.595 23.9 17.595 52.9V595.53c0 26.152 2.29 30.722 14.228 30.722 9.67 0 12.493 1.683 12.493 7.393 0 5.114-2.252 6.81-10.202 6.81h-67.71c-8.493 0-10.772-1.696-10.772-6.81 0-5.71 3.392-7.393 13.646-7.393 12.494 0 14.76-4.57 14.76-30.722V481.225c0-22.734-1.127-32.405-3.95-39.798-5.14-11.393-19.342-19.355-36.405-19.355-19.873 0-40.937 9.115-52.317 23.356-9.684 11.91-13.076 27.848-13.076 59.683v90.42c0 26.152 2.278 30.722 14.215 30.722 9.67 0 13.09 1.683 13.09 7.393 0 5.114-2.305 6.81-10.255 6.81h-67.67c-7.95 0-10.255-1.696-10.255-6.81 0-5.71 3.444-7.393 13.076-7.393 11.977 0 14.23-4.57 14.23-30.722V461.883c0-22.178-1.14-23.304-17.05-24.456-4.533-.544-7.394-2.836-7.394-6.24 0-3.988 1.71-6.254 7.393-8.52l34.126-17.645c1.71-1.14 6.823-1.67 9.684-1.67 5.075 0 6.81 2.226 6.81 9.075v18.19zM1694.872 409.01c6.266 0 9.114 2.265 9.114 7.404 0 5.67-2.29 8.506-7.95 9.09h-17.1c-15.913 0-18.748 3.417-18.748 23.316v136.495c0 34.658 2.835 42.076 18.203 42.076 6.81 0 8.52-.568 17.647-7.948 2.24-1.71 4.518-2.874 6.227-2.874 3.418 0 6.28 3.405 6.28 6.823 0 10.824-20.47 22.735-39.824 22.735-17.633 0-32.405-7.366-38.684-18.734-3.405-7.417-3.405-8.543-3.405-37.53V452.806c0-25.038-1.126-27.887-14.784-27.887h-8.532c-6.24 0-9.658-2.835-9.658-7.95 0-5.695 2.253-7.96 9.658-7.96h23.317v-71.673c0-9.09 1.153-10.785 7.976-14.785l13.607-6.823c2.317-1.114 4.04-1.697 5.71-1.697 4.556 0 6.265 3.975 6.265 13.66v81.316h34.684zM1797.27 595.534c0 26.152 2.277 30.722 14.24 30.722 9.658 0 13.05 2.266 13.05 7.38 0 5.126-2.278 6.822-10.823 6.822h-67.633c-7.392 0-9.697-1.696-9.697-6.822 0-5.697 3.418-7.38 12.545-7.38 12.507 0 14.746-4.57 14.746-30.722v-135.9c0-17.633-2.835-22.203-14.746-22.203-7.405.57-10.24-1.126-10.24-5.683 0-3.405.53-3.974 7.392-7.392l35.797-18.773c1.115-.557 6.28-2.24 7.976-2.24 5.71 0 7.393 2.836 7.393 13.076v179.116zm5.113-273.522c0 13.063-10.24 23.304-23.29 23.304-12.533 0-22.748-10.24-22.748-23.304 0-12.532 10.215-22.747 23.29-22.747 12.507 0 22.748 10.215 22.748 22.747M1989.772 445.42c1.153 3.963 1.153 5.672 1.153 6.798 0 2.86-2.305 5.127-5.127 5.127-3.975 0-3.975 0-10.824-10.24-11.91-18.76-30.126-29.57-51.177-29.57-21.595 0-35.797 12.506-35.797 30.71 0 17.632 7.95 26.164 48.873 52.33 29.583 18.2 36.405 22.746 45.507 31.834 11.367 11.38 17.62 26.72 17.62 44.354 0 40.963-29.596 69.368-72.203 69.368-10.823 0-21.05-1.696-35.85-5.684-5.695-1.683-7.96-2.253-10.227-2.253-2.835 0-5.1 1.127-7.962 4-2.835 3.393-3.987 3.937-6.24 3.937-4 0-5.71-2.85-7.988-12.494l-9.088-36.393c-1.14-4.557-1.14-6.292-1.14-7.975 0-3.392 2.266-5.67 6.28-5.67 3.378 0 5.683 1.71 8.505 7.353 17.077 29.014 34.697 40.976 60.266 40.976 27.887 0 47.23-17.608 47.23-43.825 0-14.746-5.71-25.543-17.62-35.797-8.546-6.823-8.546-6.823-37.56-24.43-43.227-26.152-57.443-43.23-57.443-68.837 0-31.835 26.722-55.695 62.57-55.695 10.81 0 25.583 2.227 36.95 5.658 2.305.543 3.43 1.14 4.584 1.14 2.265 0 5.1-1.697 7.34-3.963 2.33-2.304 2.874-2.835 5.166-2.835 3.962 0 6.253 2.835 7.367 9.645l6.835 32.43zM896.093 296.536v9.865c5.425-7.844 11.756-11.236 20.637-11.236 8.804 0 16.092 3.793 19.627 10.266 2.278 4.052 3.094 8.66 3.094 16.34v37.285h-7.715V321.77c0-13.634-5.658-20.65-16.326-20.65-12.3 0-19.045 8.518-19.045 24.028v33.907h-7.703v-48.097c0-1.32-.272-7.522-.39-11.457l-.296-2.964h8.117zM961.445 312.467c1.786-12.028 8.79-17.31 22.837-17.31 15.55 0 23.472 7.172 23.472 20.96v21.595c0 12.973.272 15.808 1.904 21.35h-7.95c-.945-4.053-1.23-5.412-1.657-9.607-6.187 8.092-11.586 10.98-20.636 10.98-12.843 0-21.594-7.6-21.594-18.683 0-10.526 7.405-17.284 21.594-19.42 4.053-.57 8.118-.83 20.637-1.1 0-8.08-.374-11.186-1.708-14.164-2.045-4.052-6.758-6.486-13.127-6.486-9.426 0-14.98 4.065-14.98 11.082v.803h-8.79zm32.975 14.577c-19.873 0-28.65 4.467-28.65 14.462 0 7.418 6.33 12.96 15.133 12.96 6.875 0 12.688-2.99 16.08-8.26 2.46-3.794 3.068-7.134 3.068-14.695v-4.466h-5.63zM1082.465 359.056h-7.703v-12.3c-5.8 9.853-11.99 13.672-22.553 13.672-16.197 0-25.35-11.65-25.35-32.042 0-20.495 10.098-33.22 26.45-33.22 9.463 0 15.937 3.78 21.452 12.725v-38.903h7.703v90.07zm-47.67-30.243c0 16.313 7.173 25.647 19.576 25.647 12.43 0 20.547-10.927 20.547-27.667 0-15.134-8.363-25.686-20.235-25.686-12.597 0-19.886 10.137-19.886 27.706M1104.49 312.467c1.746-12.028 8.776-17.31 22.81-17.31 15.523 0 23.498 7.172 23.498 20.96v21.595c0 12.973.285 15.808 1.903 21.35h-7.948c-.945-4.053-1.243-5.412-1.657-9.607-6.188 8.092-11.587 10.98-20.65 10.98-12.804 0-21.607-7.6-21.607-18.683 0-10.526 7.418-17.284 21.607-19.42 4.066-.57 8.118-.83 20.65-1.1 0-8.08-.427-11.186-1.735-14.164-2.032-4.052-6.784-6.486-13.115-6.486-9.438 0-14.98 4.065-14.98 11.082v.803h-8.776zm32.947 14.577c-19.847 0-28.624 4.467-28.624 14.462 0 7.418 6.33 12.96 15.108 12.96 6.902 0 12.702-2.99 16.094-8.26 2.434-3.794 3.08-7.134 3.08-14.695v-4.466h-5.657zm-6.227-38.904h-8.234l12.286-19.575h10.125l-14.177 19.575zM1223.056 339.74c-2.007 14.033-9.97 20.7-24.702 20.7-17.426 0-28.51-12.985-28.51-33.376 0-18.915 12.03-31.887 29.468-31.887 13.49 0 22.54 7.975 23.744 20.805h-6.344c-2.667-10.41-8.08-14.863-17.957-14.863-12.96 0-20.935 9.994-20.935 26.475 0 17.01 7.846 26.877 21.336 26.877 10.54 0 15.937-4.48 17.556-14.733h6.344zM1248.468 359.057h-7.703v-62.52h7.703v62.52zm.402-81.576h-8.532v-8.492h8.532v8.493zM1270.467 312.467c1.735-12.028 8.752-17.31 22.786-17.31 15.536 0 23.51 7.172 23.51 20.96v21.595c0 12.973.312 15.808 1.89 21.35h-7.974c-.946-4.053-1.192-5.412-1.606-9.607-6.215 8.092-11.626 10.98-20.676 10.98-12.804 0-21.582-7.6-21.582-18.683 0-10.526 7.432-17.284 21.582-19.42 4.078-.57 8.092-.83 20.676-1.1 0-8.08-.427-11.186-1.787-14.164-1.994-4.052-6.693-6.486-13.063-6.486-9.45 0-15.005 4.065-15.005 11.082v.803h-8.753zm32.936 14.577c-19.86 0-28.638 4.467-28.638 14.462 0 7.418 6.357 12.96 15.135 12.96 6.888 0 12.7-2.99 16.093-8.26 2.382-3.794 3.08-7.134 3.08-14.695v-4.466h-5.67z" fill="#515457" opacity=".5"/>
</svg>
