<svg xmlns="http://www.w3.org/2000/svg" viewBox="0 0 2085 1000">
  <path d="M2055.876 833.858l15.08 1.882c-2.363 8.79-6.816 15.63-13.197 20.497-6.45 4.866-14.69 7.3-24.7 7.3-12.623 0-22.608-3.857-30.045-11.592-7.345-7.804-11.063-18.684-11.063-32.708 0-14.53 3.74-25.754 11.224-33.72 7.46-8.078 17.146-12.118 29.036-12.118 11.59 0 20.956 3.993 28.278 11.82 7.322 7.827 10.95 18.89 10.95 33.144l-.047 3.857H2007.1c.506 9.48 3.214 16.756 8.057 21.783 4.798 5.004 10.788 7.552 17.973 7.552 5.37 0 9.94-1.4 13.75-4.224 3.763-2.822 6.77-7.298 8.996-13.472m-47.995-23.596h48.157c-.643-7.322-2.502-12.693-5.486-16.366-4.68-5.623-10.74-8.378-18.132-8.378-6.725 0-12.37 2.18-16.94 6.703-4.59 4.477-7.115 10.513-7.597 18.042m-25.3 38.277l2.09 12.898c-4.087.92-7.828 1.332-11.02 1.332-5.3 0-9.433-.872-12.416-2.548-2.916-1.676-4.935-3.856-6.13-6.565-1.193-2.777-1.766-8.56-1.766-17.306v-49.6h-10.697v-11.386h10.698V754.04l14.53-8.768v30.092h14.712v11.385h-14.713v50.427c0 4.177.23 6.863.78 8.01l2.502 2.87 5.003 1.01 6.427-.528zm-67.896 13.112V848.96c-6.725 9.754-15.837 14.574-27.406 14.574-5.05 0-9.847-.94-14.23-2.892-4.408-1.928-7.667-4.407-9.825-7.345-2.157-2.915-3.603-6.542-4.498-10.834-.597-2.87-.896-7.414-.896-13.657v-53.458h14.62v47.88c0 7.62.3 12.785.896 15.425.918 3.88 2.87 6.886 5.853 9.066 2.983 2.134 6.632 3.236 11.062 3.236 4.384 0 8.447-1.125 12.326-3.35 3.833-2.228 6.565-5.327 8.15-9.183 1.582-3.856 2.386-9.48 2.386-16.824v-46.252h14.575v86.304h-13.016zm-70.833-13.113l2.09 12.898c-4.11.92-7.736 1.332-10.972 1.332-5.348 0-9.457-.872-12.395-2.548-2.938-1.676-4.958-3.856-6.15-6.565-1.195-2.777-1.837-8.56-1.837-17.306v-49.6h-10.697v-11.386h10.696V754.04l14.598-8.768v30.092h14.667v11.385h-14.666v50.427c0 4.177.252 6.863.734 8.01l2.57 2.87 4.982 1.01 6.38-.528zm-68.72-105.95h14.622v16.8h-14.62v-16.8zm0 32.776h14.622v86.28h-14.62v-86.28zm-14.418 73.173l2.09 12.898c-4.11.92-7.782 1.332-11.065 1.332-5.256 0-9.364-.872-12.348-2.548-2.916-1.676-4.936-3.856-6.107-6.565-1.216-2.777-1.767-8.56-1.767-17.306v-49.6h-10.765v-11.386h10.766V754.04l14.483-8.768v30.092h14.712v11.385H1746v50.427c0 4.177.298 6.863.78 8.01l2.524 2.87 5.027 1.01 6.382-.528zm-120.93-12.665l14.485-2.272c.78 5.76 3.075 10.26 6.77 13.313 3.673 3.076 8.907 4.637 15.563 4.637 6.702 0 11.683-1.378 14.943-4.086 3.236-2.755 4.89-5.945 4.89-9.618 0-3.352-1.493-5.922-4.34-7.85-2.02-1.263-6.977-2.916-14.942-4.958-10.718-2.663-18.155-4.98-22.287-6.955-4.108-1.997-7.3-4.73-9.433-8.263-2.112-3.42-3.19-7.322-3.19-11.546 0-3.833.894-7.414 2.64-10.673 1.743-3.26 4.153-5.968 7.183-8.17 2.273-1.654 5.37-3.1 9.273-4.27 3.925-1.125 8.15-1.745 12.625-1.745 6.795 0 12.74.987 17.858 2.915 5.096 1.974 8.883 4.59 11.362 7.965 2.387 3.305 4.063 7.735 4.98 13.313l-14.3 1.95c-.62-4.384-2.5-7.872-5.623-10.374-3.098-2.526-7.528-3.674-13.175-3.674-6.748 0-11.568 1.056-14.39 3.282-2.848 2.25-4.294 4.798-4.294 7.76l1.79 5.14 5.578 3.948c1.47.482 5.785 1.768 12.9 3.696 10.398 2.754 17.582 5.026 21.645 6.794 4.11 1.72 7.3 4.27 9.618 7.666 2.364 3.305 3.49 7.53 3.49 12.487 0 4.842-1.4 9.432-4.224 13.748-2.846 4.338-7 7.666-12.326 10.007-5.37 2.318-11.385 3.466-18.202 3.466-11.2 0-19.717-2.294-25.616-6.954-5.876-4.613-9.594-11.568-11.247-20.68m-86.61 25.776v-86.304h13.128v12.28c6.382-9.48 15.494-14.23 27.5-14.23 5.163 0 9.938.986 14.322 2.845 4.36 1.836 7.597 4.338 9.755 7.345 2.18 3.007 3.672 6.634 4.567 10.81.55 2.687.827 7.415.827 14.186v53.068h-14.666v-52.448c0-5.968-.505-10.444-1.653-13.36-1.17-2.983-3.167-5.37-6.082-7.068-2.892-1.79-6.243-2.686-10.168-2.686-6.197 0-11.614 1.974-16.09 5.945-4.568 3.97-6.817 11.43-6.817 22.448v47.17h-14.62zm-41.66-.023h15.747V742.57h-15.746v119.06zm-84.182-27.768l15.058 1.883c-2.34 8.79-6.794 15.63-13.244 20.497-6.427 4.866-14.644 7.3-24.652 7.3-12.624 0-22.586-3.857-30.022-11.592-7.346-7.804-11.064-18.684-11.064-32.71 0-14.528 3.764-25.752 11.2-33.717 7.484-8.08 17.17-12.12 29.06-12.12 11.522 0 20.98 3.995 28.278 11.822 7.322 7.827 10.95 18.89 10.95 33.144l-.093 3.855h-64.314c.55 9.48 3.237 16.756 8.08 21.783 4.843 5.004 10.834 7.55 18.018 7.55 5.348 0 9.916-1.4 13.726-4.222 3.764-2.823 6.77-7.3 9.02-13.474m-47.994-23.595h48.155c-.64-7.322-2.523-12.694-5.53-16.366-4.66-5.623-10.697-8.377-18.087-8.377-6.726 0-12.395 2.18-16.986 6.702-4.568 4.476-7.115 10.513-7.55 18.042m-37.945 19.762l14.39 1.88c-1.582 9.894-5.6 17.675-12.072 23.276-6.45 5.6-14.392 8.355-23.825 8.355-11.82 0-21.324-3.832-28.462-11.522-7.14-7.735-10.743-18.798-10.743-33.19 0-9.32 1.538-17.444 4.614-24.422 3.1-7.024 7.78-12.21 14.07-15.746 6.335-3.49 13.198-5.256 20.59-5.256 9.364 0 17.03 2.41 23.02 7.138 5.923 4.752 9.734 11.477 11.432 20.2l-14.23 2.18c-1.332-5.808-3.742-10.123-7.185-13.084-3.396-2.892-7.597-4.315-12.463-4.315-7.345 0-13.336 2.594-17.95 7.85-4.613 5.28-6.885 13.634-6.885 25.065 0 11.568 2.203 19.992 6.656 25.248 4.43 5.257 10.237 7.85 17.4 7.85 5.714 0 10.51-1.79 14.345-5.256 3.833-3.535 6.266-8.952 7.3-16.25m-148.704 31.627v-86.305h13.083v12.28c6.38-9.48 15.516-14.23 27.498-14.23 5.142 0 9.94.986 14.346 2.846 4.316 1.836 7.598 4.338 9.778 7.345 2.112 3.007 3.673 6.633 4.545 10.81.504 2.686.825 7.415.825 14.186v53.067h-14.667v-52.45c0-5.966-.55-10.442-1.675-13.357-1.125-2.984-3.214-5.37-6.06-7.07-2.892-1.79-6.312-2.685-10.214-2.685-6.22 0-11.57 1.974-16.114 5.944-4.522 3.97-6.748 11.43-6.748 22.448v47.17h-14.6zm-36.27-10.67c-5.393 4.57-10.65 7.874-15.63 9.756-4.958 1.928-10.375 2.8-16.113 2.8-9.457 0-16.71-2.295-21.83-6.932-5.117-4.59-7.642-10.51-7.642-17.696 0-4.292.94-8.102 2.892-11.614 1.905-3.466 4.43-6.29 7.53-8.355 3.097-2.134 6.632-3.74 10.534-4.82 2.847-.78 7.185-1.47 13.016-2.158 11.798-1.446 20.474-3.12 26.03-5.095l.09-3.81c0-5.945-1.354-10.123-4.13-12.58-3.743-3.258-9.274-4.934-16.642-4.934-6.863 0-11.982 1.194-15.24 3.604-3.284 2.387-5.67 6.702-7.254 12.785l-14.3-1.95c1.262-6.107 3.466-11.042 6.404-14.806 3.007-3.74 7.276-6.632 12.9-8.698 5.623-1.974 12.142-3.076 19.6-3.076 7.323 0 13.36.895 17.928 2.617 4.59 1.767 8.033 3.925 10.122 6.564 2.204 2.617 3.72 5.922 4.59 9.893.46 2.548.712 7.024.712 13.497v19.533c0 13.565.3 22.173.94 25.822.598 3.512 1.86 6.955 3.674 10.33h-15.264c-1.492-3.03-2.456-6.61-2.915-10.674m-1.215-32.617c-5.303 2.136-13.267 3.995-23.85 5.487-6.013.895-10.282 1.813-12.738 2.938l-5.784 4.73-1.997 7c0 3.855 1.423 7.115 4.407 9.686 2.915 2.594 7.23 3.926 12.946 3.926 5.622 0 10.626-1.263 15.056-3.696 4.315-2.502 7.574-5.807 9.617-10.122 1.56-3.306 2.342-8.172 2.342-14.6v-5.347zm-147.532 43.287v-86.305h13.13v12.28c6.38-9.48 15.492-14.23 27.497-14.23 5.142 0 9.94.986 14.323 2.846 4.315 1.836 7.62 4.338 9.755 7.345 2.18 3.007 3.695 6.633 4.568 10.81.528 2.686.826 7.415.826 14.186v53.067h-14.667v-52.45c0-5.966-.505-10.442-1.676-13.357-1.148-2.984-3.145-5.37-6.037-7.07-2.916-1.79-6.267-2.685-10.17-2.685-6.265 0-11.613 1.974-16.158 5.944-4.522 3.97-6.748 11.43-6.748 22.448v47.17h-14.644zm-55.545 0v-86.305h13.198v13.107c3.352-6.084 6.427-10.147 9.274-12.12 2.823-1.93 5.99-2.94 9.41-2.94 4.89 0 9.87 1.654 15.012 4.753l-5.05 13.565c-3.58-2.135-7.184-3.19-10.765-3.19-3.168 0-6.014 1.01-8.607 2.892-2.502 1.905-4.316 4.613-5.417 8.01-1.607 5.21-2.388 10.903-2.388 17.032v45.195h-14.667zm-33.263-27.795l15.057 1.883c-2.34 8.79-6.77 15.63-13.198 20.497-6.45 4.866-14.69 7.3-24.698 7.3-12.624 0-22.61-3.857-30-11.592-7.39-7.804-11.086-18.684-11.086-32.71 0-14.528 3.764-25.752 11.224-33.717 7.437-8.08 17.17-12.12 29.06-12.12 11.544 0 20.955 3.995 28.23 11.822 7.323 7.827 10.973 18.89 10.973 33.144l-.046 3.855h-64.337c.528 9.48 3.237 16.756 8.08 21.783 4.797 5.004 10.788 7.55 17.995 7.55 5.325 0 9.916-1.4 13.726-4.222 3.764-2.823 6.748-7.3 9.02-13.474m-48.017-23.595h48.178c-.642-7.322-2.502-12.694-5.508-16.366-4.683-5.623-10.72-8.377-18.133-8.377-6.68 0-12.372 2.18-16.94 6.702-4.568 4.476-7.092 10.513-7.597 18.042m-70.223 51.39l-32.8-86.305h15.4l18.547 51.668c2.02 5.578 3.834 11.385 5.533 17.422 1.285-4.59 3.122-10.03 5.394-16.435l19.166-52.655h15.057l-32.64 86.305h-13.656zm-121.873-43.17c0-15.953 4.408-27.797 13.29-35.464 7.415-6.358 16.482-9.617 27.132-9.617 11.867 0 21.553 3.925 29.082 11.683 7.528 7.78 11.315 18.522 11.315 32.18 0 11.132-1.653 19.854-5.004 26.212-3.352 6.335-8.218 11.293-14.576 14.805-6.335 3.49-13.267 5.256-20.818 5.256-12.05 0-21.783-3.833-29.265-11.614-7.414-7.713-11.156-18.892-11.156-33.444m15.036 0c0 11.064 2.387 19.327 7.207 24.79 4.82 5.53 10.88 8.263 18.18 8.263 7.23 0 13.312-2.756 18.132-8.264 4.797-5.51 7.23-13.91 7.23-25.272 0-10.627-2.433-18.73-7.276-24.215-4.867-5.487-10.88-8.242-18.088-8.242-7.3 0-13.36 2.732-18.18 8.172-4.82 5.508-7.206 13.75-7.206 24.766m-81.36-3.542v-13.978l50.428-.07v44.163c-7.78 6.196-15.723 10.81-23.963 13.91-8.217 3.143-16.663 4.704-25.34 4.704-11.706 0-22.31-2.502-31.882-7.552-9.57-4.98-16.755-12.234-21.644-21.644-4.867-9.503-7.277-20.084-7.277-31.79 0-11.592 2.41-22.38 7.254-32.456 4.867-10.077 11.8-17.468 20.91-22.357 9.113-4.89 19.51-7.322 31.424-7.322 8.607 0 16.388 1.377 23.366 4.178 6.955 2.778 12.395 6.657 16.32 11.66 3.948 5.005 6.955 11.5 9.044 19.51l-14.21 3.88c-1.835-6.082-4.015-10.857-6.7-14.277-2.64-3.49-6.45-6.266-11.34-8.332-4.958-2.087-10.398-3.12-16.388-3.12-7.23 0-13.45 1.1-18.707 3.305-5.257 2.157-9.458 5.027-12.67 8.63-3.238 3.558-5.717 7.483-7.553 11.775-3.007 7.322-4.522 15.31-4.522 23.918 0 10.65 1.79 19.487 5.51 26.648 3.65 7.14 8.928 12.464 15.93 15.884 7 3.512 14.413 5.256 22.263 5.256 6.794 0 13.428-1.33 19.947-3.925 6.495-2.64 11.43-5.44 14.78-8.423v-22.173h-34.98zm-186.853 46.713v-119.06h14.598v67.874l34.637-35.118h18.89l-32.96 32.043 36.312 54.262h-18.042l-28.508-44.14-10.33 9.94v34.2h-14.597zm-36.314-10.67c-5.395 4.57-10.606 7.874-15.61 9.756-4.98 1.928-10.42 2.8-16.136 2.8-9.502 0-16.71-2.295-21.85-6.932-5.074-4.59-7.645-10.51-7.645-17.696 0-4.292.986-8.102 2.915-11.614 1.882-3.466 4.43-6.29 7.528-8.355 3.122-2.134 6.634-3.74 10.536-4.82 2.845-.78 7.183-1.47 13.013-2.158 11.775-1.446 20.43-3.12 26.03-5.095l.068-3.81c0-5.945-1.353-10.123-4.108-12.58-3.74-3.258-9.273-4.934-16.664-4.934-6.886 0-11.958 1.194-15.24 3.604-3.283 2.387-5.693 6.702-7.23 12.785l-14.3-1.95c1.285-6.107 3.442-11.042 6.403-14.806 3.008-3.74 7.277-6.632 12.924-8.698 5.6-1.974 12.142-3.076 19.602-3.076 7.368 0 13.336.895 17.903 2.617 4.59 1.767 7.987 3.925 10.168 6.564 2.157 2.617 3.672 5.922 4.544 9.893.46 2.548.712 7.024.712 13.497v19.533c0 13.565.298 22.173.918 25.822.643 3.512 1.882 6.955 3.696 10.33h-15.264c-1.492-3.03-2.456-6.61-2.915-10.674m-1.218-32.617c-5.302 2.136-13.267 3.995-23.87 5.487-5.992.895-10.238 1.813-12.717 2.938l-5.785 4.73-1.996 7c0 3.855 1.423 7.115 4.384 9.686 2.938 2.594 7.253 3.926 12.968 3.926 5.624 0 10.605-1.263 15.012-3.696 4.36-2.502 7.62-5.807 9.663-10.122 1.562-3.306 2.342-8.172 2.342-14.6v-5.347zM273.82 861.658l-32.823-86.305h15.425l18.523 51.668c1.974 5.578 3.833 11.385 5.51 17.422 1.33-4.59 3.12-10.03 5.438-16.435l19.19-52.655h15.057l-32.686 86.305H273.82zm-121.893-43.17c0-15.953 4.43-27.797 13.313-35.464 7.39-6.358 16.457-9.617 27.154-9.617 11.82 0 21.507 3.925 29.035 11.683 7.505 7.78 11.292 18.522 11.292 32.18 0 11.132-1.675 19.854-4.98 26.212-3.352 6.335-8.172 11.293-14.576 14.805-6.312 3.49-13.313 5.256-20.772 5.256-12.12 0-21.83-3.833-29.312-11.614-7.436-7.713-11.155-18.892-11.155-33.444m15.012 0c0 11.064 2.432 19.327 7.252 24.79 4.797 5.53 10.857 8.263 18.202 8.263 7.23 0 13.244-2.756 18.04-8.264 4.89-5.51 7.277-13.91 7.277-25.272 0-10.627-2.41-18.73-7.275-24.215-4.866-5.487-10.88-8.242-18.04-8.242-7.346 0-13.406 2.732-18.203 8.172-4.82 5.508-7.253 13.75-7.253 24.766m-46.826 43.143h14.598V742.57h-14.598v119.06zM6.027 823.35l14.85-1.285c.713 5.967 2.365 10.81 4.913 14.667 2.594 3.81 6.542 6.932 11.982 9.25 5.417 2.387 11.5 3.603 18.248 3.603 5.99 0 11.315-.94 15.93-2.754 4.636-1.79 8.033-4.2 10.282-7.367 2.25-3.1 3.35-6.473 3.35-10.122 0-3.74-1.1-7.023-3.235-9.823-2.204-2.778-5.716-5.142-10.742-7.024-3.168-1.216-10.237-3.167-21.186-5.83-10.95-2.617-18.57-5.027-22.954-7.39-5.693-2.985-9.94-6.703-12.716-11.087-2.8-4.43-4.155-9.342-4.155-14.828 0-5.99 1.676-11.614 5.096-16.802 3.42-5.28 8.402-9.227 14.966-11.936 6.496-2.708 13.818-4.062 21.783-4.062 8.882 0 16.663 1.4 23.388 4.27 6.702 2.822 11.89 7.046 15.54 12.53 3.65 5.533 5.554 11.8 5.83 18.73l-15.104 1.15c-.803-7.507-3.557-13.153-8.24-17.055-4.705-3.833-11.59-5.784-20.75-5.784-9.525 0-16.457 1.766-20.795 5.3-4.385 3.49-6.566 7.69-6.566 12.602 0 4.292 1.56 7.78 4.637 10.536 2.985 2.777 10.972 5.6 23.757 8.492 12.785 2.915 21.6 5.463 26.328 7.62 6.954 3.168 12.05 7.208 15.378 12.143 3.306 4.912 4.935 10.558 4.935 16.916 0 6.335-1.813 12.28-5.44 17.88-3.626 5.623-8.837 9.962-15.654 13.106-6.748 3.1-14.414 4.683-22.93 4.683-10.765 0-19.763-1.608-27.062-4.73-7.276-3.144-12.99-7.896-17.123-14.14-4.155-6.31-6.336-13.472-6.543-21.46m2059.78 144.734l1.468 8.974c-2.823.574-5.394.873-7.643.873-3.65 0-6.496-.596-8.54-1.744l-4.222-4.568c-.827-1.86-1.286-5.853-1.286-11.912v-34.292h-7.39v-7.873h7.39v-14.78l10.123-6.038v20.82h10.1v7.872h-10.1v34.866c0 2.846.09 4.705.46 5.53l1.766 1.975 3.466.712 4.406-.413zm3.03-62.846V894.84h10.35v10.398c0 3.81-.665 6.84-2.042 9.158-1.308 2.387-3.466 4.178-6.404 5.417l-2.524-3.764 4.27-3.766c.895-1.606 1.4-3.97 1.468-7.046h-5.118zm-86.55 54.15l9.986-1.585c.597 3.994 2.18 7.07 4.683 9.158 2.57 2.182 6.174 3.238 10.742 3.238 4.66 0 8.102-.94 10.352-2.824l3.35-6.656-2.983-5.417c-1.33-.894-4.797-2.065-10.283-3.373-7.414-1.882-12.556-3.512-15.448-4.89-2.846-1.376-5.026-3.26-6.495-5.692-1.468-2.387-2.203-5.072-2.203-7.987l1.836-7.39 4.958-5.67 6.428-2.916c2.71-.757 5.647-1.216 8.722-1.216 4.66 0 8.768.71 12.28 2.043 3.604 1.353 6.198 3.19 7.873 5.44 1.63 2.317 2.823 5.415 3.466 9.272l-9.87 1.354c-.437-3.076-1.722-5.486-3.95-7.185-2.11-1.743-5.14-2.615-9.065-2.615-4.683 0-7.942.803-9.962 2.318l-2.938 5.417 1.24 3.535 3.856 2.685c1.01.368 3.995 1.24 8.884 2.548 7.207 1.928 12.165 3.49 14.988 4.683 2.87 1.217 5.027 2.985 6.702 5.35 1.584 2.294 2.365 5.186 2.365 8.652 0 3.305-.943 6.496-2.917 9.48-1.95 3.007-4.82 5.302-8.515 6.932-3.72 1.63-7.942 2.41-12.624 2.41-7.713 0-13.59-1.584-17.697-4.798-4.04-3.236-6.634-8.01-7.76-14.3m-63.66-12.036c0-11.063 3.077-19.19 9.205-24.537 5.12-4.384 11.385-6.633 18.776-6.633 8.17 0 14.873 2.708 20.084 8.056 5.187 5.394 7.827 12.808 7.827 22.265 0 7.69-1.172 13.704-3.49 18.134-2.295 4.36-5.67 7.804-10.008 10.237-4.407 2.41-9.25 3.627-14.414 3.627-8.355 0-15.103-2.685-20.29-8.033-5.096-5.325-7.69-13.06-7.69-23.114m10.398 0c0 7.643 1.652 13.313 4.98 17.146 3.33 3.81 7.552 5.692 12.602 5.692 5.004 0 9.158-1.882 12.51-5.715 3.305-3.833 4.98-9.663 4.98-17.49 0-7.368-1.675-12.946-5.027-16.733-3.373-3.764-7.48-5.67-12.462-5.67-5.05 0-9.273 1.883-12.602 5.647-3.328 3.764-4.98 9.48-4.98 17.123m-70.58 29.835v-59.633h9.11V926c4.362-6.543 10.72-9.825 19.006-9.825 3.558 0 6.863.666 9.87 1.95 3.007 1.31 5.28 3.008 6.77 5.05 1.493 2.135 2.595 4.59 3.146 7.483.39 1.883.574 5.142.574 9.824v36.703H1896.8v-36.29c0-4.108-.414-7.184-1.194-9.227l-4.178-4.935-7.07-1.767c-4.27 0-8.033 1.377-11.086 4.086-3.12 2.708-4.705 7.896-4.705 15.54v32.593h-10.122zm-18.55-21.877l9.916 1.308c-1.102 6.84-3.856 12.188-8.332 16.09-4.5 3.88-9.985 5.808-16.48 5.808-8.15 0-14.714-2.686-19.67-8.034-4.96-5.302-7.46-12.923-7.46-22.884 0-6.496 1.1-12.05 3.235-16.917 2.112-4.775 5.37-8.448 9.71-10.858 4.383-2.41 9.135-3.65 14.253-3.65 6.473 0 11.73 1.63 15.93 4.98 4.063 3.192 6.68 7.874 7.85 13.91l-9.8 1.516c-.942-3.994-2.618-7.07-4.982-9.044-2.387-2.065-5.233-3.052-8.608-3.052-5.095 0-9.227 1.836-12.417 5.486-3.19 3.65-4.773 9.433-4.773 17.306 0 8.034 1.56 13.84 4.59 17.422 3.076 3.695 7.093 5.486 12.05 5.486 3.972 0 7.277-1.194 9.94-3.65 2.616-2.41 4.315-6.15 5.05-11.224m-14.99-51.346l6.175-9.55h11.43l-12.624 15.7H1819.1l-12.12-15.7h11.57l6.358 9.55zm-91.63 43.388c0-11.063 3.075-19.19 9.157-24.537 5.188-4.384 11.385-6.633 18.822-6.633 8.17 0 14.874 2.708 20.06 8.056 5.212 5.394 7.805 12.808 7.805 22.265 0 7.69-1.123 13.704-3.442 18.134-2.272 4.36-5.623 7.804-10.03 10.237-4.407 2.41-9.227 3.627-14.392 3.627-8.4 0-15.08-2.685-20.245-8.033-5.117-5.325-7.734-13.06-7.734-23.114m10.375 0c0 7.643 1.654 13.313 4.982 17.146 3.35 3.81 7.506 5.692 12.624 5.692 4.98 0 9.18-1.882 12.487-5.715 3.328-3.833 5.003-9.663 5.003-17.49 0-7.368-1.675-12.946-5.026-16.733-3.35-3.764-7.506-5.67-12.464-5.67-5.118 0-9.273 1.883-12.624 5.647-3.328 3.764-4.98 9.48-4.98 17.123m-32.376 29.825h10.145V894.82h-10.144v82.355zm-67.48-29.825c0-11.063 3.12-19.19 9.18-24.537 5.142-4.384 11.385-6.633 18.8-6.633 8.148 0 14.873 2.708 20.083 8.056 5.187 5.394 7.804 12.808 7.804 22.265 0 7.69-1.17 13.704-3.443 18.134-2.295 4.36-5.692 7.804-10.076 10.237-4.407 2.41-9.204 3.627-14.37 3.627-8.354 0-15.08-2.685-20.29-8.033-5.14-5.325-7.69-13.06-7.69-23.114m10.4 0c0 7.643 1.652 13.313 4.98 17.146 3.35 3.81 7.53 5.692 12.6 5.692 5.005 0 9.16-1.882 12.51-5.715 3.33-3.833 4.982-9.663 4.982-17.49 0-7.368-1.676-12.946-5.004-16.733-3.374-3.764-7.53-5.67-12.487-5.67-5.072 0-9.25 1.883-12.6 5.647-3.33 3.764-4.982 9.48-4.982 17.123m-70.583 52.655v-82.47h9.204v7.757c2.135-3.053 4.66-5.302 7.368-6.84 2.754-1.47 6.014-2.25 9.94-2.25 5.117 0 9.593 1.286 13.472 3.948 3.88 2.617 6.817 6.313 8.837 11.064 1.952 4.774 2.985 9.985 2.985 15.7 0 6.082-1.08 11.545-3.305 16.48-2.227 4.866-5.394 8.608-9.55 11.224-4.176 2.57-8.56 3.88-13.197 3.88-3.328 0-6.358-.712-9.043-2.135l-6.588-5.394v29.035h-10.122zm9.158-52.334c0 7.714 1.538 13.383 4.706 17.033 3.075 3.626 6.817 5.485 11.247 5.485 4.477 0 8.333-1.905 11.546-5.692 3.19-3.833 4.774-9.71 4.774-17.674 0-7.575-1.56-13.29-4.682-17.054-3.122-3.81-6.84-5.67-11.224-5.67-4.247 0-8.08 1.974-11.385 6.06-3.33 3.994-4.982 9.87-4.982 17.513m-70.666 11.717l9.985-1.584c.597 3.994 2.09 7.07 4.728 9.158 2.57 2.182 6.083 3.238 10.696 3.238 4.638 0 8.104-.94 10.353-2.824l3.35-6.656-2.96-5.417c-1.354-.894-4.82-2.065-10.328-3.373-7.39-1.882-12.556-3.512-15.425-4.89-2.846-1.376-5.05-3.26-6.496-5.692-1.492-2.387-2.203-5.072-2.203-7.987l1.814-7.39 4.935-5.67 6.426-2.916c2.73-.757 5.623-1.216 8.79-1.216 4.592 0 8.746.71 12.28 2.043 3.536 1.353 6.152 3.19 7.85 5.44 1.676 2.317 2.824 5.415 3.467 9.272l-9.847 1.354c-.482-3.076-1.768-5.486-3.902-7.185-2.18-1.743-5.256-2.615-9.136-2.615-4.682 0-7.964.803-9.96 2.318l-2.962 5.417 1.24 3.535 3.855 2.685c1.034.368 4.018 1.24 8.907 2.548 7.208 1.928 12.12 3.49 14.99 4.683 2.822 1.217 5.025 2.985 6.678 5.35 1.56 2.294 2.387 5.186 2.387 8.652 0 3.305-.964 6.496-2.984 9.48-1.928 3.007-4.774 5.302-8.446 6.932-3.72 1.63-7.942 2.41-12.625 2.41-7.712 0-13.588-1.584-17.674-4.798-4.062-3.236-6.656-8.01-7.78-14.3m-52.766 17.8v-8.793c-4.66 6.726-10.994 10.1-18.936 10.1-3.488 0-6.77-.643-9.823-1.997-3.1-1.377-5.325-3.076-6.817-5.096-1.492-2.065-2.525-4.52-3.1-7.482-.39-1.997-.62-5.096-.62-9.457v-36.908h10.078v33.053c0 5.302.184 8.814.643 10.65l4.04 6.266c2.066 1.54 4.614 2.297 7.667 2.297 2.96 0 5.853-.78 8.515-2.296l5.647-6.38c1.1-2.685 1.652-6.54 1.652-11.66v-31.928h10.1v59.633h-9.045zm-21.185-67.048l7.413-15.723h13.244l-12.35 15.723h-8.308zm-81.856 67.047v-59.633h9.09V926c4.383-6.543 10.74-9.825 19.005-9.825 3.558 0 6.887.666 9.893 1.95 3.03 1.31 5.234 3.008 6.818 5.05 1.47 2.135 2.502 4.59 3.1 7.483.39 1.883.55 5.142.55 9.824v36.703h-10.1v-36.29c0-4.108-.367-7.184-1.193-9.227l-4.154-4.935-7.07-1.767c-4.246 0-8.034 1.377-11.11 4.086-3.144 2.708-4.705 7.896-4.705 15.54v32.593h-10.122zm-25.017-7.352c-3.72 3.167-7.323 5.348-10.79 6.702-3.442 1.354-7.16 1.974-11.154 1.974-6.52 0-11.59-1.63-15.103-4.775-3.535-3.26-5.302-7.345-5.302-12.303 0-2.915.69-5.555 1.997-8.01l5.257-5.808 7.3-3.305c1.95-.506 4.934-1.034 8.974-1.54 8.102-.963 14.14-2.11 17.995-3.442l.07-2.64c0-4.108-.942-7-2.893-8.7-2.57-2.294-6.38-3.442-11.5-3.442-4.728 0-8.286.826-10.512 2.525-2.273 1.676-3.925 4.59-5.05 8.815l-9.87-1.33c.895-4.248 2.387-7.645 4.453-10.24 2.044-2.615 5.028-4.658 8.93-6.012 3.856-1.446 8.4-2.112 13.496-2.112s9.25.575 12.395 1.768c3.237 1.24 5.556 2.732 7.047 4.522l3.145 6.886c.298 1.745.46 4.82.46 9.32v13.496c0 9.387.275 15.31.71 17.834l2.548 7.162h-10.604l-1.997-7.345zm-.827-22.563c-3.673 1.492-9.18 2.73-16.526 3.787-4.132.597-7.047 1.262-8.814 2.02l-3.948 3.305-1.446 4.774 3.097 6.772c2.066 1.767 5.027 2.64 8.906 2.64 3.902 0 7.39-.804 10.444-2.503 3.007-1.72 5.256-4.04 6.68-7.023 1.078-2.273 1.606-5.647 1.606-10.1v-3.672zm-78.994 29.915l-22.655-59.633h10.673l12.762 35.67c1.377 3.9 2.662 7.918 3.787 12.004.94-3.122 2.18-6.886 3.764-11.34l13.268-36.334h10.42l-22.585 59.633h-9.434zm-84.26-29.835c0-11.063 3.076-19.19 9.205-24.537 5.118-4.384 11.385-6.633 18.753-6.633 8.194 0 14.896 2.708 20.084 8.056 5.21 5.394 7.827 12.808 7.827 22.265 0 7.69-1.15 13.704-3.467 18.134-2.32 4.36-5.67 7.804-10.03 10.237-4.43 2.41-9.228 3.627-14.415 3.627-8.332 0-15.104-2.685-20.245-8.033-5.12-5.325-7.712-13.06-7.712-23.114m10.375 0c0 7.643 1.7 13.313 4.98 17.146 3.352 3.81 7.553 5.692 12.603 5.692 5.003 0 9.18-1.882 12.51-5.715 3.35-3.833 5.003-9.663 5.003-17.49 0-7.368-1.675-12.946-5.05-16.733-3.327-3.764-7.482-5.67-12.462-5.67-5.05 0-9.25 1.883-12.602 5.647-3.282 3.764-4.98 9.48-4.98 17.123m-47.54 29.835l-22.68-59.633h10.697l12.762 35.67c1.377 3.9 2.663 7.918 3.81 12.004.92-3.122 2.158-6.886 3.765-11.34l13.267-36.334h10.42l-22.654 59.633h-9.388zm-41.558-7.352c-3.764 3.167-7.368 5.348-10.857 6.702-3.442 1.354-7.137 1.974-11.108 1.974-6.565 0-11.637-1.63-15.15-4.775-3.488-3.26-5.233-7.345-5.233-12.303 0-2.915.688-5.555 1.973-8.01l5.21-5.808 7.277-3.305c1.95-.506 5.027-1.034 9.02-1.54 8.103-.963 14.117-2.11 18.02-3.442l.068-2.64c0-4.108-.987-7-2.893-8.7-2.593-2.294-6.426-3.442-11.522-3.442-4.75 0-8.24.826-10.513 2.525-2.295 1.676-3.97 4.59-5.072 8.815l-9.847-1.33c.92-4.248 2.388-7.645 4.477-10.24 2.02-2.615 5.003-4.658 8.906-6.012 3.856-1.446 8.377-2.112 13.496-2.112 5.095 0 9.25.575 12.417 1.768 3.19 1.24 5.53 2.732 7.023 4.522l3.122 6.886c.344 1.745.528 4.82.528 9.32v13.496c0 9.387.275 15.31.666 17.834l2.524 7.162h-10.535l-1.997-7.345zm-.85-22.563c-3.718 1.492-9.18 2.73-16.55 3.787-4.13.597-7.045 1.262-8.813 2.02l-3.948 3.305-1.4 4.774 3.03 6.772c2.066 1.767 5.05 2.64 8.93 2.64 3.924 0 7.367-.804 10.42-2.503 3.007-1.72 5.233-4.04 6.68-7.023 1.078-2.273 1.652-5.647 1.652-10.1v-3.672zm-76.46 29.915v-59.633h9.088v9.02c2.32-4.223 4.476-7.023 6.427-8.354l6.496-2.043c3.35 0 6.84 1.08 10.35 3.282l-3.465 9.365-7.39-2.18-5.946 1.974-3.765 5.53c-1.148 3.628-1.722 7.53-1.722 11.776v31.263h-10.076zm-63.884 22.82v-82.47h9.25v7.757c2.112-3.053 4.613-5.302 7.368-6.84 2.73-1.47 6.014-2.25 9.893-2.25 5.14 0 9.594 1.286 13.473 3.948 3.902 2.617 6.84 6.313 8.79 11.064 2.044 4.774 3.03 9.985 3.03 15.7 0 6.082-1.147 11.545-3.304 16.48-2.18 4.866-5.348 8.608-9.526 11.224-4.154 2.57-8.607 3.88-13.175 3.88-3.328 0-6.38-.712-9.066-2.135l-6.588-5.394v29.035h-10.146zm9.18-52.334c0 7.714 1.54 13.383 4.638 17.033 3.12 3.626 6.863 5.485 11.315 5.485 4.476 0 8.31-1.905 11.57-5.692 3.143-3.833 4.773-9.71 4.773-17.674 0-7.575-1.584-13.29-4.728-17.054-3.1-3.81-6.84-5.67-11.2-5.67-4.27 0-8.08 1.974-11.41 6.06-3.28 3.994-4.957 9.87-4.957 17.513M895.8 959.388l10.007-1.584c.55 3.994 2.088 7.07 4.66 9.158 2.57 2.182 6.128 3.238 10.764 3.238 4.638 0 8.08-.94 10.33-2.824l3.35-6.656-2.983-5.417c-1.377-.894-4.797-2.065-10.306-3.373-7.39-1.882-12.554-3.512-15.423-4.89-2.846-1.376-5.05-3.26-6.496-5.692-1.49-2.387-2.225-5.072-2.225-7.987l1.813-7.39 4.958-5.67 6.45-2.916c2.685-.757 5.623-1.216 8.7-1.216 4.68 0 8.813.71 12.348 2.043 3.534 1.353 6.15 3.19 7.85 5.44 1.675 2.317 2.823 5.415 3.49 9.272l-9.917 1.354c-.436-3.076-1.722-5.486-3.902-7.185-2.135-1.743-5.188-2.615-9.09-2.615-4.66 0-7.987.803-9.96 2.318l-2.985 5.417 1.262 3.535 3.856 2.685c1.033.368 3.994 1.24 8.93 2.548 7.115 1.928 12.14 3.49 14.964 4.683l6.634 5.35c1.653 2.294 2.433 5.186 2.433 8.652 0 3.305-.965 6.496-2.94 9.48-1.996 3.007-4.82 5.302-8.515 6.932-3.695 1.63-7.896 2.41-12.578 2.41-7.712 0-13.68-1.584-17.72-4.798-4.04-3.236-6.656-8.01-7.758-14.3m-51.02-1.457l10.445 1.353c-1.676 6.037-4.73 10.788-9.16 14.117-4.475 3.374-10.167 5.095-17.076 5.095-8.723 0-15.632-2.685-20.75-8.056-5.096-5.35-7.644-12.9-7.644-22.564 0-10.054 2.57-17.858 7.735-23.39 5.19-5.508 11.868-8.286 20.062-8.286 8.034 0 14.507 2.71 19.58 8.103 5.003 5.463 7.574 13.06 7.574 22.953l-.07 2.64h-44.482c.39 6.587 2.272 11.59 5.554 15.103 3.352 3.442 7.552 5.186 12.464 5.186 3.718 0 6.886-.964 9.503-2.915 2.64-1.973 4.75-5.05 6.266-9.34m-33.144-16.298h33.26c-.482-5.026-1.722-8.79-3.834-11.293-3.236-3.88-7.413-5.854-12.532-5.854-4.614 0-8.516 1.538-11.683 4.683-3.145 3.097-4.935 7.252-5.21 12.462m-46.093 35.553v-59.633h9.09v9.02c2.34-4.223 4.476-7.023 6.45-8.354l6.472-2.043c3.42 0 6.886 1.08 10.375 3.282l-3.465 9.365-7.414-2.18-5.967 1.974-3.74 5.53c-1.126 3.628-1.676 7.53-1.676 11.776v31.263h-10.123zm-54.537 0h-9.342v-82.357h10.1v29.38c4.292-5.348 9.71-8.033 16.343-8.033 3.65 0 7.16.757 10.42 2.203 3.283 1.515 5.99 3.58 8.08 6.29 2.134 2.64 3.787 5.876 4.958 9.64 1.17 3.764 1.79 7.804 1.79 12.142 0 10.19-2.502 18.11-7.53 23.688-5.094 5.555-11.154 8.355-18.223 8.355-7.047 0-12.556-2.915-16.596-8.79v7.482zm-.09-30.3c0 7.163 1.01 12.327 2.914 15.472 3.214 5.21 7.483 7.827 12.946 7.827 4.384 0 8.217-1.905 11.454-5.76 3.19-3.835 4.82-9.55 4.82-17.125 0-7.828-1.56-13.52-4.66-17.26-3.03-3.674-6.817-5.556-11.2-5.556-4.385 0-8.195 1.95-11.43 5.784-3.238 3.833-4.844 9.365-4.844 16.618m-76.905.464c0-11.063 3.123-19.19 9.25-24.537 5.097-4.384 11.34-6.633 18.754-6.633 8.148 0 14.873 2.708 20.107 8.056 5.165 5.394 7.805 12.808 7.805 22.265 0 7.69-1.17 13.704-3.49 18.134-2.27 4.36-5.646 7.804-10.007 10.237-4.43 2.41-9.25 3.627-14.414 3.627-8.355 0-15.103-2.685-20.29-8.033-5.12-5.325-7.713-13.06-7.713-23.114m10.4 0c0 7.643 1.674 13.313 4.98 17.146 3.35 3.81 7.55 5.692 12.624 5.692 4.98 0 9.158-1.882 12.532-5.715 3.283-3.833 4.958-9.663 4.958-17.49 0-7.368-1.698-12.946-5.027-16.733-3.374-3.764-7.505-5.67-12.463-5.67-5.073 0-9.273 1.883-12.624 5.647-3.306 3.764-4.98 9.48-4.98 17.123m-31.872 29.835v-7.53c-3.764 5.923-9.32 8.838-16.687 8.838-4.75 0-9.11-1.308-13.105-3.925-3.97-2.64-7.047-6.266-9.227-10.972-2.227-4.728-3.306-10.076-3.306-16.182 0-5.968.965-11.34 2.984-16.205 1.974-4.844 4.912-8.585 8.93-11.133 3.947-2.64 8.354-3.902 13.29-3.902 3.58 0 6.816.803 9.616 2.295l6.84 5.922v-29.564h10.03v82.357h-9.364zm-31.95-29.77c0 7.597 1.63 13.312 4.82 17.1 3.236 3.787 7 5.67 11.384 5.67 4.453 0 8.195-1.792 11.27-5.418 3.076-3.604 4.66-9.113 4.66-16.503 0-8.172-1.584-14.163-4.73-17.973-3.19-3.81-7.045-5.714-11.613-5.714-4.5 0-8.264 1.813-11.27 5.463-3.03 3.67-4.523 9.432-4.523 17.374m-61.79 10.515l10.42 1.353c-1.63 6.037-4.68 10.788-9.134 14.117-4.5 3.374-10.17 5.095-17.077 5.095-8.723 0-15.632-2.685-20.727-8.056-5.12-5.35-7.69-12.9-7.69-22.564 0-10.054 2.616-17.858 7.735-23.39 5.187-5.508 11.89-8.286 20.153-8.286 7.964 0 14.46 2.71 19.51 8.103 5.027 5.463 7.574 13.06 7.574 22.953l-.023 2.64h-44.53c.436 6.587 2.25 11.59 5.578 15.103 3.35 3.442 7.506 5.186 12.463 5.186 3.743 0 6.864-.964 9.504-2.915 2.617-1.973 4.682-5.05 6.243-9.34M485.63 941.63h33.26c-.46-5.026-1.7-8.79-3.81-11.293-3.215-3.88-7.392-5.854-12.488-5.854-4.682 0-8.538 1.538-11.775 4.683-3.12 3.097-4.89 7.252-5.187 12.462m-46.07 35.553v-59.633h9.09v9.02c2.34-4.223 4.476-7.023 6.473-8.354l6.45-2.043c3.42 0 6.91 1.08 10.397 3.282l-3.488 9.365-7.39-2.18-5.946 1.974-3.765 5.53c-1.123 3.628-1.72 7.53-1.72 11.776v31.263h-10.1zm-63.816 22.82v-82.47h9.18v7.757c2.205-3.053 4.66-5.302 7.392-6.84 2.73-1.47 5.99-2.25 9.916-2.25 5.118 0 9.594 1.286 13.473 3.948 3.902 2.617 6.817 6.313 8.86 11.064 1.974 4.774 2.96 9.985 2.96 15.7 0 6.082-1.078 11.545-3.304 16.48-2.157 4.866-5.393 8.608-9.548 11.224-4.13 2.57-8.56 3.88-13.198 3.88-3.305 0-6.335-.712-8.997-2.135l-6.634-5.394v29.035h-10.1zm9.135-52.334c0 7.714 1.606 13.383 4.705 17.033 3.075 3.626 6.84 5.485 11.247 5.485 4.475 0 8.378-1.905 11.568-5.692 3.122-3.833 4.797-9.71 4.797-17.674 0-7.575-1.606-13.29-4.682-17.054-3.145-3.81-6.886-5.67-11.224-5.67-4.292 0-8.125 1.974-11.43 6.06-3.328 3.994-4.98 9.87-4.98 17.513m-50.964 20.414l1.446 8.974c-2.823.574-5.348.873-7.62.873-3.673 0-6.473-.596-8.54-1.744l-4.268-4.568c-.78-1.86-1.217-5.853-1.217-11.912v-34.292h-7.414v-7.873h7.414v-14.78l10.03-6.038v20.82h10.17v7.872h-10.17v34.866c0 2.846.185 4.705.552 5.53l1.743 1.975 3.443.712 4.43-.413zm-46.893 9.1v-8.79c-4.66 6.725-10.95 10.1-18.914 10.1-3.558 0-6.818-.644-9.848-1.998-3.052-1.377-5.325-3.076-6.817-5.096-1.47-2.065-2.525-4.52-3.098-7.482-.436-1.997-.62-5.096-.62-9.457v-36.908h10.1v33.053c0 5.302.206 8.814.62 10.65l4.04 6.266c2.042 1.54 4.59 2.297 7.62 2.297 3.03 0 5.875-.78 8.515-2.296l5.67-6.38c1.1-2.685 1.63-6.54 1.63-11.66v-31.928h10.098v59.633h-8.997zM265.79 910.14l7.484-15.723h13.198l-12.303 15.723h-8.38zm-27.722 57.946l1.423 8.974c-2.845.574-5.393.873-7.642.873-3.65 0-6.52-.596-8.516-1.744l-4.246-4.568c-.85-1.86-1.263-5.853-1.263-11.912v-34.292h-7.367v-7.873h7.367v-14.78l10.1-6.038v20.82h10.145v7.872h-10.145v34.866c0 2.846.138 4.705.482 5.53l1.744 1.975 3.488.712 4.43-.413zm-47.58-73.242h10.1v11.638h-10.1v-11.638zm0 22.724h10.1v59.632h-10.1v-59.632zm-9.924 50.518l1.492 8.974c-2.87.574-5.417.873-7.667.873-3.65 0-6.52-.596-8.516-1.744l-4.27-4.568c-.85-1.86-1.24-5.853-1.24-11.912v-34.292h-7.413v-7.873h7.415v-14.78l10.076-6.038v20.82h10.124v7.872H170.44v34.866c0 2.846.14 4.705.506 5.53l1.745 1.975 3.467.712 4.407-.413zm-83.555-8.697l10.007-1.584c.505 3.994 2.09 7.07 4.682 9.158 2.524 2.182 6.105 3.238 10.74 3.238 4.638 0 8.058-.94 10.33-2.824l3.352-6.656-2.984-5.417c-1.4-.894-4.798-2.065-10.33-3.373-7.436-1.882-12.532-3.512-15.4-4.89-2.87-1.376-5.05-3.26-6.497-5.692-1.49-2.387-2.225-5.072-2.225-7.987l1.79-7.39 4.98-5.67 6.45-2.916c2.71-.757 5.624-1.216 8.7-1.216 4.683 0 8.814.71 12.35 2.043 3.534 1.353 6.15 3.19 7.803 5.44 1.676 2.317 2.846 5.415 3.535 9.272l-9.916 1.354c-.46-3.076-1.767-5.486-3.925-7.185-2.112-1.743-5.187-2.615-9.09-2.615-4.636 0-7.987.803-9.938 2.318l-2.984 5.417 1.217 3.535 3.902 2.685c1.01.368 3.992 1.24 8.904 2.548 7.14 1.928 12.143 3.49 14.966 4.683 2.823 1.217 5.05 2.985 6.656 5.35 1.584 2.294 2.41 5.186 2.41 8.652 0 3.305-.987 6.496-2.96 9.48-1.952 3.007-4.798 5.302-8.493 6.932-3.742 1.63-7.896 2.41-12.58 2.41-7.734 0-13.633-1.584-17.695-4.798-4.086-3.236-6.657-8.01-7.76-14.3m24.906-55.43l6.174-9.55h11.454l-12.648 15.723H116.13l-12.097-15.724h11.545l6.336 9.55zm-84.842 73.23V917.55h9.112V926c4.384-6.543 10.72-9.825 18.96-9.825 3.58 0 6.885.666 9.915 1.95 3.03 1.31 5.278 3.008 6.77 5.05 1.492 2.135 2.525 4.59 3.145 7.483.367 1.883.574 5.142.574 9.824v36.703H75.425v-36.29c0-4.108-.367-7.184-1.17-9.227l-4.2-4.935-7.047-1.767c-4.293 0-8.035 1.377-11.134 4.086-3.12 2.708-4.705 7.896-4.705 15.54v32.593H37.073zm-28.81-.01h10.88v-82.357H8.263v82.355zm1926.67-323.16h150.297V71.1h-150.3v582.92zm-72.52-41.707c-36.382 17.696-74.117 30.894-113.32 39.754-39.136 8.837-79.557 13.29-121.24 13.29-94.2 0-168.844-26.304-223.954-78.982-54.996-52.7-82.563-124.085-82.563-214.29 0-91.217 28.05-162.9 84.124-215.256 56.073-52.265 146.486-96.886 243.968-96.886 37.666 0 88.324-.32 122.73 6.886 38.287 8.15 74.6 21.53 90.253 29.908V212.19c-31.514-17.882-69.708-25.984-108.75-31.79-32.067-4.82-69.504-8.723-104.232-2.94-57.314 9.55-98.676 22.885-130.122 55.387-31.377 32.433-47.214 78.82-47.214 139.234 0 59.84 15.264 106.09 45.493 138.684 30.344 32.57 73.427 48.822 129.25 48.822 15.17 0 29.22-.92 42.28-2.778 12.968-1.882 24.582-4.866 35.026-8.906v-109.9h-89.08v-97.78h227.35V612.31zM1261.054 89.43v123.35c-31.996-14.322-63.26-25.11-93.672-32.363-30.458-7.3-59.242-10.95-86.35-10.95-35.898 0-62.455 4.96-79.624 14.83-17.216 9.87-25.755 25.248-25.755 46.043 0 15.61 5.762 27.843 17.33 36.52 11.546 8.744 32.594 16.25 63.007 22.47l64.108 12.9c64.843 12.99 110.864 32.823 138.224 59.38 27.314 26.534 40.994 64.2 40.994 113.16 0 64.383-19.097 112.148-57.176 143.548-38.194 31.354-96.426 47.03-174.743 47.03-37 0-74.094-3.488-111.278-10.51-37.207-7.094-74.483-17.492-111.667-31.264V496.62c37.184 19.81 73.22 34.75 107.903 44.713 34.728 10.123 68.31 15.08 100.558 15.08 32.754 0 57.934-5.485 75.332-16.388 17.468-10.972 26.213-26.603 26.213-46.894 0-18.155-5.967-32.225-17.788-42.118-11.844-9.892-35.486-18.798-70.856-26.648l-58.21-12.808c-58.21-12.51-100.902-32.387-127.78-59.7-26.947-27.408-40.42-64.202-40.42-110.544 0-58.003 18.706-102.693 56.143-133.978 37.48-31.17 91.375-46.778 161.658-46.778 32.02 0 64.958 2.41 98.837 7.253 33.764 4.727 68.86 11.957 105.01 21.62m-504.41 424.5c.16-7.76 3.833-59.358-6.014-157.92-9.8-98.65-13.403-148.78-12.783-173.364.62-24.537 2.685-53.87 2.685-53.87s-11.247-19.007-14.116-36.772c-2.755-17.766-2.64-21.163-.85-26.65 1.975-5.898 7.76-15.47 4.683-24.56-.483-1.26-14.852-7-20.13-8.492-5.326-1.377-11.34-2.57-11.34-2.57L695.062 20l-4.315-1.56-2.893-4.316c-1.973-1.102-26.786 1.996-33.167-.092-6.427-2.066-17.467-9.64-23.665-10.283-6.128-.62-68.676-4.202-86.923-3.697-18.088.55-53.987 2.18-58.968 3.696-4.98 1.582-4.683 4.43-13.015 4.91-8.332.53-70.65-.068-79.44.253-8.815.276-9.274 5.256-19.28 5.76-8.035.346-56.122 1.93-85.892-1.4C259.64 10.2 190.09 6.62 182.93 8.984c-7.047 2.34-19.304 10.26-26.03 10.49 0 0-2.294-16.803-10.488-10.49 0 0 3.51 7.987-.827 13.61-3.902 5.004-14.782 2.066-14.782 2.066l2.938-6.497c7.645-6.587 7.484-9.18 7.484-9.18-17.536-4.247-28.99 14.804-39.617 16.686-10.604 1.858-18.638 2.294-21.255 3.373-7.368 2.892-13.978 8.17-33.993 9.158C26.32 39.12.612 40.268.612 40.268S-2.21 49.793 4.263 51.1l14.896-1.17 7.436.758c2.846 2.112.367 15.402 10.398 10.513 0 0-2.71-6.564 4.36-9.915 8.47-4.017 29.358-3.076 32.158 4.544h-26.03s-2.294 2.387-2.845 6.243c-.62 3.994 2.272 7.643-.734 12.096-1.263 1.904-2.96 4.498-9.48 8.193-5.37 3.1-16.412 7.598-19.028 11.523-2.778 3.902-5.234 9.09-2.824 9.457 5.44.918 19.718 9.456 24.424 9.847 4.36.32 4.36 3.65 5.28 5.233 1.4 2.34 27.06 4.27 31.996 4.82 6.472.78 9.64 5.532 9.64 5.532s-10.604-.23-17.03 8.332c-4.867 6.335-8.976 12.716-8.976 12.716s13.818-1.515 17.766 3.65c4.384 5.715 1.492 10.122-1.24 11.292-2.96 1.286-6.312-.32-12.348-5.164-5.968-4.82-12.258-9.64-14.622-7.757l-5.187 8.332s6.794 4.085 11.43 7.55c5.67 4.202 9.526 8.035 10.536 8.22 3.442.848 9.157-6.428 12.577-4.57 3.398 1.883 4.752 14.048-.298 18.11-6.152 5.028-19.305 4.087-24.148 7.53-3.03 2.272-4.89 4.774-4.89 4.774s10.4-.047 15.288 1.72c7.942 2.87 10.742 8.677 10.742 8.677s-8.01-1.01-10.742 3.718c-2.754 4.683-5.853 12.165.276 11.936l2.456-3.878c1.95-.436 3.74 1.492 2.938 17.352-.322 6.083-3.742 8.286-11.638 9.618-7.896 1.285-16.8 2.387-20.795 4.728-3.925 2.295-4.132 8.63-4.132 8.63s5.05-.528 15.585-2.984c10.513-2.478 23.252-5.692 30.184-5.967 3.19-.093 12.05-.46 18.96 1.582 6.977 2.158 9.777 4.614 13.427 7.368 0 0-25.087-.55-34.796 2.71-8.86 2.914-12.188 7.71-12.188 7.71s6.358 0 5.99 6.52c-.482 6.473-1.446 15.447-7.207 36.404-5.785 21.048-9.55 31.882-12.74 58.966-3.19 27.452.734 36.037-1.423 44.093-1.676 6.542-5.394 10.467-5.394 10.467l-4.338-8.56c-1.768-3.192-6.06-7.186-6.06-7.186s.413 10.995-2.594 16.55c-2.822 5.095-3.717 16.847-3.533 18.96l.85 6.196s-6.244-.39-12.327 2.71c-6.06 3.05-8.493 7.71-8.493 7.71s7.07-1.56 10.72-.986c9.823 1.676 15.378 11.34 15.378 11.34s4.292-5.556 3.19-14.324c-.872-6.84-1.973-15.15 1.17-20.818 2.572-4.66 6.038-6.427 6.038-6.427s1.63 10.26.987 24.238c-.918 19.12-6.794 38.332-6.266 43.52.596 5.14 4.728 19.6 5.28 26.028 1.215 14.416-2.618 13.52-3.077 17.33-.298 2.32 6.703 3.742 6.886 11.96.138 8.607-3.58 23.848-4.774 31.01-.506 3.236-2.526 9.8-1.378 14.667 1.56 6.082 6.45 10.145 7.55 7.367 1.677-4.108 6.59-7.827 8.173-7.253 4.016 1.378 1.63 11.386-1.125 23.92-2.732 12.53-7.047 31.192-7.047 31.192s3.053.252 7.253 1.377c4.2 1.147 9.572 3.19 11.064 3.006 3.053-.436 7.368-3.35 7.712-4.384 1.31-3.443 2.41-14.002 4.752-16.848 4.452-5.44 10.97-3.925 10.97-3.925v31.216s5.234 2.364 9.09 2.64c3.834.39 13.084-.345 18.524 6.54 4.246 5.58 4.017 9.55 4.246 12.373.62 6.816-10.237 16.09-9.434 19.945l8.746 5.532s-1.883-14.92 10.88-10.857c12.784 3.948 20.405 5.577 20.405 5.577s-3.58-15.493 5.21-15.722c8.723-.253 23.023-.253 55.387 0 32.456.298 82.884 1.124 97.85.757 14.965-.39 19.35.275 23.917-.757 4.59-1.01 8.424-3.72 12.004-4.476 3.627-.667 42.602-.85 54.514-.277 12.05.482 38.814.78 42.877-.39 4.153-1.217 7.987-4.407 11.89-4.935 3.855-.39 34.727 1.125 60.756 6.932 26.075 5.807 73.77 17.513 78.683 18.546 10.787 2.41 30.343-6.932 31.1-4.912.735 1.974 2.32 13.198 7.047 11.89 9.572-2.48-5.99-18.34 3.466-17.123 15.563 2.09 26.03-5.255 26.03-5.255s.114 17.03 4.75 17.81c8.402 1.562 21.255-17.81 21.255-17.81 14.117-.253 5.945 16.067 20.842 10.49 0 0-1.882-11.684 8.332-20.82 10.214-9.112 17.766-10.49 17.766-10.49s3.213-4.888 3.397-25.936c.23-28.532 5.922-32.71 11.522-48.708 5.188-14.575-1.767-50.98.367-67.3.804-5.484 5.624-7.16 5.99-20.083M290.42 435.176c-24.813-.138-4.843-14.53-9.847-34.545 14.116.62 8.998 20.635 9.847 34.545m69.32 24.812c-20.36.252-54.79 7.69-54.332-14.85 31.492 3.006 63.19 5.92 93.902 9.96-4.5 8.93-23.78 4.637-39.57 4.89m118.093-36.932c-53.458-.574-97.138-10.674-151.147-10.49-2.754-32.272 15.998-42.922 10.398-78.133-5.165-7.023-13.887-10.466-20.957-15.654-1.698 16.23 12.212 24.837 0 36.428-10.97 2.456-9.755-7.483-10.374-15.585-6.404-2.318-10.582-6.634-10.42-15.654-8.86-1.15-13.52 8.836-15.61 0v-20.843h52.196c-5.234-9.893-23.138-4.75-31.332-5.187-10.214-.643-4.5-6.198-20.864 0-2.686-4.132-5.463-8.424-5.234-15.746-21.943 1.216-33.65-7.965-52.057-10.306 7.276-15.792 26.855-12.83 41.728-10.398 10.88 1.768 25.617 1.95 46.803 5.142 23.986 3.65 78.913 8.928 114.674 10.443 5.28 15.654-11.545 9.25-20.818 10.444-1.677 13.77 29.172-4.867 20.817 15.607H373.58c3.488 19.028 20.75-1.147 41.705 5.28 21.44-6.955-2.364 12.968 10.352 10.374 6.77-1.33 9.595-35.83 5.28-41.705 24.468-1.928 44.666.528 41.614 26.052h-36.45c14.117 12.67 20.223 1.56 31.194 5.28 4.155 1.33-5.53 7-5.187 5.164-2.57 12.786 9.548-6.31 15.746 5.21V423.06zM298.88 318.268l-5.53-5.074 2.615-5.05c1.997 0 5.188 1.424 9.778 5.44-2.524 3.375-4.866 4.683-6.863 4.683" opacity=".5" fill="#515457"/>
</svg>
