<svg xmlns="http://www.w3.org/2000/svg" viewBox="0 0 1287 1000">
  <path d="M405.168 626.526s-40.7 36.74-90.473-9.412c-53.985-50.805-107.99 9.412-107.99 9.412L59.19 909.674c-4.127 15.202 5.032 30.803 20.34 34.867h474.832c15.35-4.063 24.424-19.664 20.36-34.866L405.168 626.526zM632.773 895.4l-229.69-382.72-.04-.693-.38-224.3h15.833c23.834 0 43.142-19.14 43.142-42.7 0-23.58-19.308-42.72-43.142-42.72H188.45c-23.814 0-43.143 19.14-43.143 42.72 0 23.56 19.33 42.7 43.142 42.7h13.853l-.442 224.32L2.955 895.4C-9.363 940.94 17.966 987.787 63.93 1000h507.826c46.005-12.212 73.334-59.06 61.017-104.6m-68.766 76.05l-492.37-.548c-30.68-8.148-48.933-39.373-40.66-69.734l199.96-388.108.61-253.84H188.45c-7.96 0-14.382-6.38-14.382-14.232 0-7.875 6.422-14.233 14.38-14.233h230.048c7.96 0 14.402 6.358 14.402 14.233 0 7.853-6.443 14.233-14.402 14.233h-43.12l.778 252.935 228.553 389.58c8.21 30.34-10 61.566-40.7 69.714M331.665 159.503c0 15.77 12.886 28.51 28.782 28.51 15.897 0 28.783-12.74 28.783-28.51 0-15.728-12.886-28.487-28.783-28.487-15.896 0-28.782 12.76-28.782 28.487m28.782-71.25c23.856 0 43.184-19.14 43.184-42.72 0-23.645-19.327-42.784-43.183-42.784-23.855 0-43.162 19.14-43.162 42.784 0 23.58 19.307 42.72 43.162 42.72m-115.13 71.25c15.898 0 28.784-12.738 28.784-28.487 0-15.75-12.885-28.51-28.782-28.51-15.896 0-28.782 12.76-28.782 28.51 0 15.75 12.886 28.487 28.782 28.487m48.87 375.96c0 19.622 16 35.54 35.75 35.54 19.708 0 35.73-15.918 35.73-35.54 0-19.603-16.022-35.542-35.73-35.542-19.75 0-35.75 15.94-35.75 35.54m1.01-54.49c15.875 0 28.782-12.76 28.782-28.487 0-15.77-12.907-28.55-28.782-28.55-15.897 0-28.782 12.78-28.782 28.55 0 15.728 12.885 28.488 28.782 28.488m10.106-104.686c0 13.096 10.675 23.687 23.813 23.687 13.18 0 23.856-10.59 23.856-23.687 0-13.075-10.675-23.687-23.856-23.687-13.138 0-23.813 10.612-23.813 23.687m-7.474-74.43c10.99 0 19.855-8.843 19.855-19.75 0-10.906-8.865-19.75-19.855-19.75-10.97 0-19.834 8.844-19.834 19.75 0 10.907 8.864 19.75 19.834 19.75" fill="#515457" opacity=".5"/>
  <path d="M120.452 909.082c-2.127-8.4-4.99-16.738-6.043-25.287-.822-6.716-.99-14.486 1.662-20.36 6.696-14.95 15.328-17.328 30.172-10.443 4 1.874 7.79 4.21 11.58 6.4 7.2 4.043 10.086 9.707 8.886 18.36-.843 5.833.884 12.044 1.515 18.108l3.285-.106.653-2.716c.674-17.707 10.8-24.95 27.54-19.812 19.728 6.063 36.678 15.56 47.33 34.53 2.633 4.674 8.655 7.432 13.14 11.054l2.274-2.57-4.8-5.22c-4.022-4.317-6.107-9.918-2-14.297 3.115-3.264 8.63-5.222 13.327-5.895 3.37-.527 7.2 2.21 10.885 3.2 5.095 1.347 10.274 3.22 15.496 3.453 11.39.612 22.107 2.064 29.94 13.834.863-30.993 1.2-31.54 25.645-39.162-5.305-6.76-10.82-13.812-17.01-21.77.483 13.22-7.666 21.35-15.856 28.886-4.127 3.832-9.896 6.822-15.412 7.917-15.98 3.243-21.16-2.548-18.065-18.38.8-4.107.61-8.423-.232-13.097-3.474 9.327-8.085 17.833-18.402 19.055-9.18 1.116-19.034 1.62-27.92-.358-10.78-2.485-21.2-7.18-31.055-12.38-3.453-1.79-4.717-7.77-7.285-12.255-6.548 7.033-15.792 10.465-26.424 8.864-10.592-1.6-19.35-6.927-26.09-15.286-12.758-15.77-12-33.54 1.918-48.026-3.264-3.685-8.044-6.927-9.244-11.18-.842-3.01 3.243-7.39 5.39-11.56-1.768.337-4.82 1.074-7.895 1.664-3.623.547-9.876 2.337-10.38 1.305-2.465-4.862-5.58-11.305-4.15-15.706 1.538-4.737 7.686-8.232 12.276-11.58 6.885-5.032 10.296 2.99 15.39 4.78l1.622.82.148-2.063c-7.854-17.348-5.096-31.834 10.548-44.91 6.8-5.663 15.392-9.79 23.877-12.716 14.36-4.864 23.52.968 26.51 15.812 3.136 15.307 5.726 30.677 8.568 46.005l1.453 5.075 1.728-1.305c2.59-10.527 6.716-14.528 14.064-13.58 6.864.905 9.833 5.853 9.096 16.465-.337 5.305-1.095 10.61-2.4 15.707-1.895 7.81-7.2 10.464-13.833 6.19-10.654-6.864-20.634-14.507-24.72-27.73-3.515-11.41-8.23-22.444-13.22-35.667-1.854 4.653-2.886 7.222-4.297 10.717-4.02-2.042-7.81-3.853-11.56-5.706l-1.03.906c3.768 4.99 7.558 9.895 11.306 14.907 8.59 11.663 7.01 16.548-6.59 21.138-4.716 1.58-9.56 3.242-13.707 5.874-2.695 1.706-4.17 5.264-5.474 8.464 19.244-11.306 35.877-7.116 48.258 12.19 4.15 6.486 2.927 10.234-4.4 12.445-10.675 3.264-19.097 9.16-22.992 20.13-.674 1.852-.61 3.937-1.326 8.548 9.58-11.79 19.518-18.676 32.467-20.36 10.968-1.432 21.16 1.094 30.297 7.137 6.948 4.548 7.01 10-.02 14.57-6.34 4.064-13.16 7.348-19.94 12.044 9.138-.654 18.15-1.686 22.297 10.716-.21-18.297 12.507-22.803 24.613-27.772 6.275-2.57 12.675-4.97 19.202-6.76 10.8-2.988 15.664.8 15.98 11.96.063 2.864 0 5.728 0 10.844 4.043-4.61 6.717-7.875 9.58-10.885 11.307-12.002 23.96-12.655 35.5-1.243 7.79 7.643 15.2 15.686 21.96 24.235 10.97 13.917 6.4 28.108-10.465 33.835-6.59 2.21-13.39 3.685-20.002 6.97 4.61 1.2 9.285 2.4 16.275 4.21-4.253 4.78-6.758 9.243-10.61 11.496-10.024 6.148-20.51 11.665-31.08 16.823-13.684 6.632-18.422 5.41-28.34-6.065l-3.683-3.032c-.843 3.896-1.664 6.864-2.085 9.854-1.705 12.57-7.074 17.518-19.665 17.855-26.656.695-56.3-23.54-61.144-49.858l-.99-4.064h-2.715c0 4.61-.273 9.264.085 13.854.99 12.633-1.81 15.876-14.613 16.023-5.58.042-11.2-.147-16.76-.547-21.686-1.558-34.193-22.824-25.35-42.91l3.222-6.128-2.233-1.83c-2.885 4.062-7.812 7.915-8.254 12.274-.947 8.443-.147 17.37 1.222 25.834 1.03 6.633 5.22 13.854-1.685 18.655-6.506 4.485-12.76.02-18.36-4.337-22.55-17.623-32.72-59.67-20.78-85.778 3.957-8.654 10.42-6.76 18.21-5.643-2.988-2.61-5.915-5.327-9.03-7.79-5.812-4.612-8.128-9.707-3.75-16.74 3.244-5.263 5.98-10.843 8.78-16.36 2.317-4.59 5.896-7.495 10.55-4.484 4.78 3.074 5.62 8.296 2.147 13.14-2.337 3.304-5.453 6.083-9.117 10.042 10.738.168 12.15 7.37 14.002 14.99 1.79 7.518-.926 12.845-6.253 17.14-20.362 16.296-19.667 37.225-13.35 60.133l4.653-2.358c2.632 2.905 5.158 5.62 7.664 8.36l1.137.104-.295-.527-.948.695z" fill="#515457" opacity=".5"/>
  <path d="M301.085 786.064c3.6-2.084 5.516-2.737 6.78-4.02 3.453-3.623 7.242-7.14 9.853-11.35 13.244-21.266 37.562-27.014 57.712-.063 9.37 12.528 8.36 23.014-3.958 32.89-2.674 2.188-5.475 4.147-7.98 6.084 5.958 4.358 11.327 8.253 16.99 12.36l.422-.296c3.77-20.15 18.57-23.097 33.14-10.59 9.18 7.853 15.96 18.444 24.15 28.297 1.117-1.916 2.675-4.905 4.465-7.727 3.852-6.127 10.147-8.295 16.043-5.706 2.737 1.222 3.98 7.496 4.484 11.665.506 4.253-.715 8.696-1.326 14.212-5.537-.464-10.61-.885-15.79-1.285-6.527 13.39-11.665 13.643-20.382.884-3.095-4.55-6.106-9.18-10.506-15.877 0 4.275-.105 6.043.02 7.812.464 6.59-.44 13.622-7.158 15.58-5.642 1.643-14.528 2.4-18.086-.82-13.265-11.897-26.298-24.677-36.615-39.142-5.01-6.99-4.084-18.402-5.306-27.877-.61-4.863-.105-9.854-.105-14.99l-2.19.357c-5.158 18.023-17.454 26.97-35.71 29.435-11.095 1.474-21.896 4.864-32.908 6.674-15.35 2.57-24.382-4.82-25.392-20.444-1.306-20.487 6.506-36.804 23.013-48.932 3.074-2.232 6.232-4.19 9.39-6.316l-.505-2.21c-6 1.094-12.106 1.852-18.002 3.41-10.127 2.758-20.15 4.863-30.235.19-15.728-7.265-19.37-22.045-8.253-35.394 4.632-5.58 10.21-10.36 14.843-17.518-8.99 1.053-17.98 2.042-28.192 3.158 1.96-9.053 5.812-15.16 13.392-18.423 13.664-5.832 27.834-7.41 42.468-4.885 12.654 2.21 16.486 8.212 11.18 19.813-2.57 5.538-7.496 9.98-11.686 15.392 17.77 2.864 31.878 12.423 39.394 30.467 7.77 18.864-.105 35.75-7.453 55.184" fill="#515457" opacity=".5"/>
  <path d="M314.615 675.812c11.496-3.664 12.212-3.243 14.59 8.885 10.36-13.328 23.56-19.708 40.026-19.18 12.15.314 24.973 8.4 27.184 20.21 1.873 10.17 1.094 21.12-.064 31.563-.252 2.506-6.253 5.664-9.98 6.274-6.57 1.01-13.37.253-20.697 1.643 27.182 5.39 43.247 24.78 58.512 45.205 9.412-12.844 17.813-15.855 27.73-10.38 10.8 5.937 13.833 18.296 7.6 33.224 4.61-1.326 8.59-3.052 12.718-3.62 5.516-.696 8.548 1.43 6.548 7.768-4.652 14.886-10.927 19.918-26.53 20.76l-3.515.443c-13.833 2.168-17.623.863-21.73-7.517-4.757-9.833-3.6-14.107 5.58-25.392-4.547 2.232-9.2 4.337-13.58 6.864-9.685 5.663-13.222 5.348-20.528-3.138-2.485-2.842-4.76-6.042-6.527-9.41-9.328-17.835-23.75-29.794-42.3-37.08l-6.527-2.736c-8.253-4.443-9.538-10.8-2.337-16.802 7.854-6.61 16.76-12.023 25.203-17.94l6-4.042c-4.99-3.326-9.875-6.57-14.802-9.874-2.484 4.105-5.243 10.317-9.496 15.286-12.317 14.338-25.666 15.117-39.752 3.053l-4.674-4.065c-12.254-10.97-12-10.928-6.716-26.13 1.41-4.063 2.358-8.78 1.6-12.864-.948-5.368 1.01-7.073 5.537-7.663l.884-.147c5.855.568 14.803-1.032 16.972 2.084 4.59 6.632-5.98 8.19-8.148 13.223l-2.76 1.073.212 1.032 3.77-.61z" fill="#515457" opacity=".5"/>
  <path d="M483.34 775.433c-7.58 6.254-9.916 1.622-12.863-4.8-3.77-8.233-8.064-16.486-13.707-23.434-8.906-10.803-9.2-11.434 5.032-16.045-6.19-5.538-11.96-10.654-16.444-14.697-2.21 6.696-2.885 14.423-6.948 19.455-7.896 9.812-20.466 8.106-27.287-2.463-1.895-2.948-4-6.17-4.527-9.496-.61-4-.82-9.16 1.263-12.107 1.39-2.063 6.968-1.22 11.537-1.79-1.053-2.99-2.61-7.074-4.042-11.285-3.095-9.622 1.705-15.202 11.622-12.717 4.927 1.22 9.854 4.148 13.623 7.622 4.042 3.642 6.758 8.8 9.895 13.412 2.38 3.452 2.548 9.305 9.412 7.726l4.59 3.832c4.232 4.527 8.21 9.285 12.528 13.686 6.064 6.21 9.16 12.443.316 19.77 7.538 2.822 14.192 5.348 20.908 7.875l-2.758 2.04c1.6 5.202 2.358 10.845 4.927 15.56 6.548 12.087 6.17 23.856-2.316 34.658-2.736 3.516-5.558 5.853-2.084 11.243 3.39 5.412-8.906 22.55-15.16 21.224-3.052-.652-7.62-5.242-7.474-7.81.42-6.74 2.485-13.624 4.822-20.087 1.347-3.77 4.548-6.822 6.927-10.212 8.17-11.475 7.918-19.055-1.79-31.162M566.39 319.07c-18.022 7.896-23.244 22.824-15.475 40.594 7.033 16.086 20.908 24.908 34.657 28.593L648.38 405.1c25.75 7.117 54.11 22.382 68.66 55.69 16.928 38.637.63 72.24-38.49 89.36-48.636 21.307-85.398-.15-108.075-44.47l33.14-25.56c13.076 26.277 33.394 51.837 61.587 39.5 18.592-8.128 23.834-21.498 15.686-40.11-10.212-23.393-29.94-29.288-48.216-34.3l-62.786-16.843c-21.455-5.496-42.53-20.866-54.66-48.47-16.864-38.656-1.24-74.218 37.774-91.315 46.11-20.15 82.22-5.685 104.075 35.162l-33.162 25.582c-12.36-24.003-31.225-41.752-57.522-30.256M784.26 229.976l-46.51 20.34 99.484 227.288L800.03 493.9l-99.485-227.29-46.49 20.362-14.485-33.14 130.204-56.997 14.486 33.14zM924.326 439.477l-37.183 16.297-58.133-284.832 37.183-16.297L1035.94 390.63l-37.184 16.296-42.468-59.017-46.47 20.38 14.508 71.187zM871.983 218.59l30.256 119.74 37.204-16.277-67.46-103.464zM1099.243 207.832l98.79 111.865-36.888 16.15-90.41-104.475-27.9 12.233 52.913 120.855-37.204 16.297-113.95-260.41 46.53-20.338c53.018-23.245 91.57-18.613 114.225 33.12 13.41 30.655 12.105 57.374-6.107 74.702m-95.948-79.925l-9.285 4.043 36.636 83.757 9.285-4.106c30.09-13.137 41.458-31.834 28.172-62.175-13.243-30.382-34.698-34.677-64.807-21.518M1234.107 33.098l-46.51 20.424 99.505 227.226-37.225 16.275-99.485-227.268-46.47 20.34-14.506-33.1L1219.642 0l14.465 33.098zM638.89 644.19l37.225-16.234 101.696 232.49 65.103-28.488 12.233 27.92-102.328 44.762-113.93-260.45zM895.026 842.422l-37.204 16.234-58.133-284.79 37.203-16.318 169.767 236.047-37.226 16.276-42.425-59.016-46.49 20.34 14.506 71.228zm-52.322-220.888l30.235 119.72 37.225-16.277-67.46-103.443zM1094.33 755.18l-65.082 28.51-113.97-260.452 55.795-24.402c46.952-20.508 87.778-15.54 107.864 30.382 14.802 33.835 6.127 54.827-17.75 74.24 33.142-3.074 58.03 5.96 74.978 44.742 20.13 45.963 4.106 86.894-41.836 106.98M1046.09 543.58c-16.086-36.762-44.763-24.74-81.378-8.696l36.615 83.736 18.59-8.17c30.825-13.496 39.9-35.456 26.172-66.87m-13.94 94.768l-18.61 8.127 40.677 93 18.61-8.148c32.13-14.065 40.406-34.277 26.173-66.828-14.254-32.53-34.74-40.216-66.85-26.15" fill="#515457" opacity=".5"/>
</svg>
