<svg xmlns="http://www.w3.org/2000/svg" viewBox="0 0 2000 1000">
  <path d="M1897.53 696.54c-21.095-5.618-36.206-19.52-40.96-37.684-1.76-6.73-1.756-7.036.126-9.116 1.788-1.975 3.12-2.152 16.19-2.152 15.826 0 15.096-.296 20.818 8.428 4.838 7.374 14.606 11.292 28.283 11.343 23.877.088 37.307-11.752 41.923-36.96 1.838-10.04 2.234-18.232.882-18.232-.457 0-2.684 1.9-4.95 4.222-5.58 5.722-12.56 10.05-21.018 13.036-5.925 2.09-9.074 2.495-19.602 2.513-13.862.023-21.183-1.41-31.21-6.118-20.306-9.532-33.542-27.435-40.19-54.36-2.04-8.26-2.426-12.546-2.435-27.008-.01-15.282.305-18.45 2.837-28.56 6.214-24.813 19.006-42.478 37.535-51.834 25.365-12.808 53.948-10.123 72.21 6.783 3.502 3.243 6.657 5.897 7.01 5.897.353 0 .642-3.113.642-6.917 0-9.48.35-9.677 17.364-9.718 7.545-.02 14.46.25 15.366.6 1.484.568 1.648 9.09 1.648 85.707v85.076l-2.63 10.394c-7.232 28.57-24.88 47.64-50.722 54.8-9.85 2.73-38.65 2.647-49.118-.14zm40.486-98.567c17.786-5.994 26.04-20.91 27.306-49.352 1.22-27.422-6.46-47.45-21.26-55.438-7.23-3.9-18.904-5.55-28.196-3.983-22.675 3.824-34.765 22.605-34.897 54.212-.132 31.34 10.286 49.73 31.548 55.694 6.844 1.92 17.897 1.428 25.498-1.133zm-1615.05 90.77c-2.003-2.544-2.276-4.17-2.276-13.55 0-9.203.294-11.03 2.16-13.4 1.975-2.514 2.795-2.746 9.677-2.746 8.924 0 18.302-2.24 22.56-5.39 4.036-2.982 7.47-8.29 10.88-16.815l2.78-6.945-4.73-11.73c-2.6-6.45-6.18-15.245-7.96-19.542-1.776-4.297-3.838-9.454-4.58-11.46-.744-2.005-3.94-9.974-7.105-17.71-3.164-7.734-10.77-26.486-16.9-41.67-6.13-15.183-12.274-30.287-13.652-33.565-2.172-5.163-2.506-7.61-2.506-18.33 0-15.972-.143-15.818 14.766-15.818 9.123 0 11.225.304 12.572 1.823.89 1.002 3.99 8.15 6.892 15.886 2.902 7.736 8.392 22.27 12.2 32.296 3.807 10.027 7.963 21.043 9.234 24.48 11.585 31.333 20.028 52.524 20.825 52.272.53-.167 2.447-4.26 4.262-9.098 5.603-14.93 19.864-52.67 27.14-71.82 11.382-29.963 11.978-31.547 14.063-37.39 3.058-8.57 2.826-8.448 16.045-8.448 15.27 0 15.14-.132 15.14 15.306v11.496l-26.097 65.512c-28.665 71.96-27.324 68.66-36.504 89.85-16.07 37.092-29.3 47.427-62.48 48.81l-14.133.59-2.275-2.892zM191.73 630.342c-13.445-3.618-24.428-11.63-30.754-22.43-3.98-6.796-6.967-19.46-6.967-29.547 0-15.975 4.547-27.003 15.27-37.035 7.402-6.923 15.84-11.326 27.962-14.59 10.644-2.866 36.43-3.97 50.713-2.173 13.735 1.73 13.694 1.757 13.144-9.177-.568-11.275-3.168-17.516-9.085-21.802-6.104-4.42-18.635-6.14-32.76-4.494-15.048 1.753-21.016 5.837-23.06 15.775-1.416 6.9-2.37 7.292-17.705 7.292-17.064 0-17.643-.38-17.02-11.154 1.125-19.44 16.995-35.535 41.5-42.093 12.098-3.237 38.16-3.505 50.006-.515C279.802 465.17 292.7 481.666 295.67 513c.582 6.127 1.058 33.92 1.06 61.764 0 47.72-.11 50.723-1.906 52.348-1.57 1.42-4.325 1.724-15.694 1.724-7.585 0-14.697-.485-15.805-1.078-1.696-.908-2.015-2.227-2.015-8.334 0-8.092-.868-8.86-4.772-4.22-4.043 4.804-13.66 10.634-22.776 13.808-7.638 2.66-9.658 2.916-22.457 2.867-8.722-.035-16.156-.62-19.575-1.54zm39.152-31.282c19.975-4.105 30.428-15.654 30.428-33.62 0-10.273-.946-10.915-18.49-12.54-33.196-3.08-53.38 6.53-53.38 25.413 0 17.468 16.708 25.832 41.442 20.748zm374.728 32.196c-7.268-1.626-19.768-6.416-25.694-9.846-17.096-9.896-29.872-28.925-34.88-51.952-2.855-13.12-2.623-38.717.47-52.04 4.408-18.985 15.54-36.98 28.602-46.234 8.82-6.25 13.303-8.383 24.813-11.805 8.816-2.62 11.354-2.916 24.92-2.89 12.4.026 16.693.46 23.96 2.415 14.078 3.79 24.14 9.544 34.04 19.467 7.207 7.226 9.318 10.193 13.757 19.34 7.09 14.607 9.802 27.577 9.775 46.744-.064 45.312-20.962 76.093-57.998 85.43-6.58 1.66-11.408 2.053-23.96 1.956-8.646-.067-16.658-.33-17.804-.586zm34.74-33.54c15.15-4.716 25.34-18.29 28.396-37.823 1.902-12.166.702-32.077-2.485-41.234-6.374-18.31-16.33-26.83-34.514-29.535-10.17-1.51-21.577.148-29.907 4.35-17.2 8.68-25.993 32.34-22.8 61.343 2.275 20.69 9.85 34.017 23.208 40.832 10.257 5.232 25.31 6.05 38.102 2.068zm546.56 33.588c-15.056-3.724-27.715-10.066-36.5-18.283-10.742-10.05-16.763-20.037-22.18-36.793-2.57-7.95-2.696-9.417-2.704-31.773-.01-22.683.084-23.74 2.877-32.764 4.697-15.182 10.295-24.88 19.904-34.478 9.52-9.51 18.204-14.595 31.357-18.36 12.012-3.44 33.85-3.413 45.79.053 28.61 8.306 46.328 29.035 52.643 61.588 1.056 5.444 2.236 15.054 2.623 21.356.662 10.777.568 11.63-1.573 14.324l-2.277 2.864h-55.53c-47.594 0-55.713.22-56.803 1.532-2.942 3.546 2.205 19.61 8.78 27.398 6.48 7.68 18.25 12.095 32.344 12.133 16.042.045 24.4-4.52 32.296-17.638l3.125-5.193 14.47-.292c17.202-.345 18.76.313 17.675 7.474-2.894 19.112-18.592 36.337-40.168 44.076-6.935 2.488-9.202 2.75-25.833 3.008-10.027.155-19.168.05-20.314-.234zm53.693-103.047c1.082-1.304 1.093-2.96.057-8.595-1.665-9.06-4.147-14.542-9.032-19.95-5.44-6.02-12.424-9.312-22.66-10.68-24.653-3.292-42.447 9.317-45.11 31.965-1.103 9.395-3.372 8.874 38.678 8.874 31.9 0 36.903-.213 38.067-1.615zm104.133 102.987c-4.616-.772-16-4.706-21.356-7.38-2.865-1.43-8.315-5.756-12.112-9.613-5.76-5.853-7.448-8.428-10.195-15.55-2.184-5.664-3.5-11.257-3.915-16.62-.61-7.917-.563-8.133 2.262-10.355 2.59-2.038 4.13-2.27 15.105-2.27 10.785 0 12.542.254 14.965 2.16 1.69 1.33 2.745 3.186 2.745 4.828 0 5.224 2.608 11.234 6.743 15.536 5.696 5.927 13.178 8.17 27.114 8.124 13.81-.045 21.53-2.312 26.825-7.878 3.704-3.893 3.906-4.463 3.906-10.97 0-14.302-5.058-17.65-37.503-24.825-26.18-5.79-37.066-10.362-46.707-19.62-9.624-9.24-14.317-25.496-11.692-40.497 3.338-19.07 16-31.314 38.777-37.496 7.272-1.973 11.312-2.357 24.832-2.356 13.706.002 17.4.362 24.433 2.383 21.208 6.094 34.135 17.55 38.413 34.044 2.773 10.69 2.872 13.67.55 16.62-2.046 2.603-2.34 2.652-15.89 2.652-12.99 0-13.934-.14-15.944-2.345-1.175-1.29-2.47-4.214-2.88-6.5-1.038-5.803-6.996-11.3-14.27-13.168-6.674-1.714-24.62-1.695-30.834.03-2.443.68-6.076 2.67-8.074 4.424-3.448 3.03-3.632 3.534-3.632 9.954 0 5.19.506 7.474 2.177 9.82 3.21 4.512 12.37 8.594 26.47 11.8 35.366 8.044 41.504 10.15 51.864 17.798 5.213 3.85 11.063 11.98 13.087 18.192.654 2.005 1.65 7.282 2.212 11.727 3.498 27.62-12.132 48.423-42.066 55.99-6.758 1.707-11.35 2.056-25.523 1.94-9.506-.078-18.455-.338-19.887-.578zm152.096 0c-4.624-.773-16.005-4.708-21.327-7.373-6.91-3.463-17.227-13.992-20.65-21.078-3.007-6.22-5.944-18.573-5.944-24.995 0-3.105.627-4.515 2.746-6.182 2.423-1.906 4.18-2.16 14.965-2.16 15.31 0 16.915.915 18.623 10.61 1.95 11.075 7.78 16.38 21.12 19.214 13.533 2.874 30.84.167 37.76-5.908 7.703-6.763 6.964-21.047-1.398-27-4.48-3.19-12.978-5.888-31.308-9.938-25.047-5.534-35.845-9.965-45.56-18.7-17.652-15.87-18.325-46.824-1.393-64.13 6.83-6.978 15.152-11.482 27.33-14.787 7.27-1.973 11.31-2.357 24.83-2.356 13.708.002 17.4.362 24.436 2.383 25.508 7.33 40.015 23.626 40.13 45.08.04 7.61-1.278 8.236-17.326 8.236-12.806 0-13.662-.13-15.804-2.412-1.246-1.326-2.266-3.46-2.266-4.74 0-1.28-.702-3.687-1.56-5.348-4.383-8.474-17.855-12.575-35.1-10.685-16.035 1.757-21.338 6.018-20.87 16.768.11 2.532 1.034 6.067 2.053 7.854 2.67 4.688 12.478 9.268 27 12.61 6.78 1.56 17.113 3.957 22.96 5.328 22.792 5.345 35.965 14.955 41.572 30.327 2.554 7.005 2.942 9.55 2.906 19.04-.038 9.987-.343 11.664-3.457 19.04-6.3 14.912-19.428 24.975-39.058 29.937-6.758 1.707-11.35 2.056-25.523 1.94-9.506-.08-18.456-.338-19.888-.578zm-1419.23-4.31c-1.58-1.746-1.725-10.243-1.725-100.843 0-75.563-.295-99.233-1.25-100.188-.923-.924-10.55-1.25-36.855-1.25-29.105 0-35.823-.264-36.805-1.446-.808-.975-1.105-5.99-.91-15.366l.293-13.92 92.603-.266c67.554-.194 92.985.052 94.018.91 1.053.872 1.417 4.447 1.417 13.907 0 11.013-.258 12.967-1.905 14.458-1.694 1.533-5.826 1.724-37.295 1.724-26.136 0-35.717.327-36.64 1.25-.955.955-1.25 24.665-1.25 100.368 0 94.7-.085 99.195-1.905 100.842-1.575 1.425-4.346 1.724-15.986 1.724-12.318 0-14.296-.238-15.805-1.905zm409.977.654c-1.815-1.815-1.815-231.122 0-232.937.854-.855 5.913-1.25 15.985-1.25 12.952 0 14.944.23 16.46 1.904 1.582 1.748 1.724 11.254 1.724 115.403 0 101.04-.18 113.753-1.623 115.814-1.547 2.21-2.308 2.316-16.46 2.316-10.15 0-15.233-.395-16.088-1.25zm241.12-.655c-1.575-1.737-1.725-9-1.725-82.964 0-75.98.114-81.147 1.823-82.444 2.7-2.05 30.052-2.02 32.108.038.988.988 1.488 3.79 1.488 8.334 0 4.27.43 6.846 1.143 6.846.628 0 3.323-1.944 5.99-4.32 2.666-2.375 8.363-5.99 12.66-8.03 7.753-3.684 7.942-3.716 24.243-4.125 11.977-.3 16.847-.066 17.97.866 1.207 1.002 1.54 4.045 1.54 14.013 0 16.29.1 16.178-14.144 16.19-29.156.02-41.423 7.343-47.112 28.12-1.265 4.616-1.652 15.432-1.994 55.722-.374 43.878-.63 50.22-2.085 51.828-1.43 1.58-3.63 1.833-15.92 1.833-12.494 0-14.476-.236-15.986-1.905zm164.67.44c-1.014-.772-2.572-4.156-3.46-7.52-2.774-10.508-12.147-46.294-16.065-61.333-1.64-6.302-4.153-15.912-5.58-21.355-1.428-5.444-4.303-16.46-6.39-24.482-2.085-8.02-5.22-19.975-6.962-26.565-3.32-12.55-8.853-33.66-14.294-54.544-2.657-10.192-3.22-14.36-3.22-23.844 0-9.724.28-11.706 1.824-12.877 2.587-1.965 24.547-2.005 26.17-.05.963 1.16 10.87 37.768 13.718 50.687.443 2.005 3.868 15.6 7.612 30.21 3.745 14.612 10.376 40.63 14.737 57.818 7.12 28.068 9.043 34.22 10.236 32.746.2-.247 1.09-3.03 1.975-6.18.886-3.15 3.82-13.23 6.52-22.398 2.7-9.167 6.08-20.652 7.51-25.523 1.43-4.87 4.463-15.184 6.742-22.92 2.278-7.734 5.704-19.454 7.613-26.043 15.04-51.925 19.444-66.097 21.128-67.975 1.425-1.59 3.73-1.823 17.98-1.823 18.596 0 18.316-.118 21.2 8.854 1.688 5.247 10.61 35.86 12.147 41.67.454 1.72 3.506 12.033 6.78 22.92 3.276 10.885 6.312 21.2 6.746 22.918.435 1.72 2.542 8.985 4.683 16.147 7.695 25.75 11.97 40.278 14.782 50.264 2.864 10.16 4.866 12.676 5.805 7.292.275-1.576 3.878-15.99 8.008-32.034 7.878-30.608 17.887-69.937 28.192-110.77 3.373-13.368 6.685-24.97 7.36-25.784 1.608-1.937 23.86-2.134 25.766-.23 2.247 2.248 1.62 27.166-.926 36.84-2.377 9.03-7.695 29.376-15.094 57.753-2.614 10.028-5.618 21.513-6.674 25.524-1.058 4.01-3.633 13.855-5.723 21.877-2.09 8.022-5.234 19.976-6.984 26.565-4.25 15.994-7.003 26.604-11.765 45.317-2.498 9.817-4.762 16.498-6.09 17.97-2.014 2.235-2.848 2.344-17.897 2.344-15.15 0-15.873-.097-18.048-2.41-1.245-1.327-2.265-2.862-2.265-3.41 0-.55-2.992-11.537-6.65-24.415-3.656-12.878-8.865-31.384-11.575-41.124-2.71-9.74-6.03-21.46-7.377-26.044-1.348-4.584-6.475-22.632-11.393-40.108-4.917-17.475-9.635-34.234-10.483-37.242-.85-3.01-1.98-5.47-2.514-5.47-.534 0-1.514 1.993-2.178 4.428-.664 2.435-2.03 7.24-3.033 10.678-3.133 10.726-6.133 21.28-10.957 38.545-2.562 9.167-5.604 19.95-6.762 23.96-3.457 11.982-15.005 52.913-20.28 71.88-6.6 23.725-7.55 26.593-9.57 28.824-1.532 1.693-3.503 1.905-17.453 1.876-11.52-.024-16.22-.408-17.572-1.434zm717.696-.44c-1.574-1.738-1.724-9.01-1.724-83.13 0-61.79.3-81.527 1.25-82.478.854-.855 5.913-1.25 15.985-1.25 12.953 0 14.945.23 16.46 1.905 1.573 1.738 1.724 8.978 1.724 82.658 0 76.91-.09 80.835-1.904 82.477-1.575 1.425-4.345 1.724-15.986 1.724-12.318 0-14.296-.238-15.804-1.905zm67.61-.41c-1.432-2.046-1.62-11.627-1.62-82.657 0-76.512.09-80.425 1.905-82.067 1.586-1.435 4.398-1.724 16.737-1.724 8.232 0 15.728.48 16.847 1.078 1.696.908 2.015 2.227 2.015 8.334 0 3.99.376 7.256.836 7.256.46 0 2.453-1.703 4.428-3.783 5.18-5.458 14.63-11.348 22.664-14.123 9.962-3.443 29.497-3.394 40.827.1 12.658 3.906 20.98 9.462 28.127 18.782 5.067 6.606 6.626 9.69 10.036 19.86l2.97 8.854.316 59.736c.236 44.44 0 60.112-.9 61.203-.943 1.135-4.566 1.466-16.034 1.466-13.03 0-15.024-.23-16.54-1.905-1.558-1.72-1.725-7.09-1.725-55.514 0-58.206-.223-60.89-5.875-70.536-5.65-9.646-18.744-14.043-34.815-11.693-14.057 2.055-21.925 7.326-27.447 18.386-5.743 11.5-6.04 14.594-6.573 68.133-.425 42.915-.707 49.726-2.117 51.307-1.41 1.58-3.675 1.823-17.033 1.823-14.74 0-15.476-.1-17.028-2.315zm-67.02-193.072c-2.21-1.548-2.314-2.303-2.314-16.61 0-18.96-.71-18.23 17.76-18.23 17.818 0 17.66-.165 17.66 18.377 0 12.82-.13 13.677-2.412 15.82-2.21 2.075-3.498 2.264-15.394 2.264-10.065 0-13.504-.365-15.3-1.622z" opacity=".5" fill="#515457"/>
</svg>
