<svg version="1.1" viewBox="0 0 1600 2500" xmlns="http://www.w3.org/2000/svg">
  <style>
      text {
        font-family: sans-serif;
        font-size: 12pt;
      }
      .caption {
        text-anchor: middle;
        dominant-baseline: central;
      }
      .arrow {
        fill: none;
        stroke: black;
        stroke-width: 1pt;
        marker-end: url(#arrow);
      }
  </style>
  <defs>
    <marker id="start" orient="auto" markerWidth="4" markerHeight="4" refX="2" refY="2">
      <circle cx="2" cy="2" r="2" />
    </marker>
    <marker id="arrow" orient="auto" markerWidth="8" markerHeight="6" refX="8" refY="3">
      <path d='M 0,0 V 6 L 8,3 Z' />
    </marker>
    <g id="decision">
      <ellipse cx="0" cy="0" rx="100" ry="30" fill="none" stroke="black" stroke-width="1pt" />
    </g>
    <g id="decision-xs">
      <ellipse cx="0" cy="0" rx="30" ry="30" fill="none" stroke="black" stroke-width="1pt" />
    </g>
    <g id="input">
      <rect x="-100" y="-20" width="200" height="40" fill="none" stroke="black" stroke-width="1pt" />
    </g>
    <g id="jump">
      <path d="M -30,-20 20,-20 40,0 20,20 -30,20 Z" fill="none" stroke="black" stroke-width="1pt" />
    </g>
    <g id="result">
      <path d="M -100,-10 -90,-20 90,-20 100,-10 100,10 90,20 -90,20 -100,10 Z" fill="none" stroke="black" stroke-width="1pt" />
    </g>
  </defs>

  <g transform="translate(100 100)">
    <path class="arrow" d="M 0,-70 v 40" marker-start="url(#start)" />
    <use href="#decision" />
    <text class="caption">Has single branch?</text>
    <path class="arrow" d="M 0,30 v 40" />
    <text x="5" y="50">yes</text>
    <path class="arrow" d="M 100,0 h 100" />
    <text x="105" y="-5">no</text>
  </g>

  <g transform="translate(400 100)">
    <use href="#input" />
    <text class="caption">Select branch</text>
    <path class="arrow" d="M 0,20 -222,80" />
  </g>

  <g transform="translate(100 200)">
    <use href="#decision" />
    <text class="caption">Is by email?</text>
    <path class="arrow" d="M 0,30 v 40" />
    <text x="5" y="50">yes</text>
    <path class="arrow" d="M 100,0 h 100" />
    <text x="105" y="-5">no</text>
  </g>

  <g transform="translate(400 200)">
    <use href="#input" />
    <text class="caption">
      <tspan>Input basics</tspan>
      <tspan x="0" dy="1.2em" font-style="italic">DD, AT</tspan>
    </text>
    <path class="arrow" d="M 0,20 -222,80" />
  </g>

  <g transform="translate(100 300)">
    <use href="#decision" />
    <text class="caption">
      <tspan>Can add</tspan>
      <tspan x="0" dy="1.2em">Clarif. Request?</tspan>
    </text>
    <path class="arrow" d="M 0,30 v 40" />
    <text x="5" y="50">no</text>
    <path class="arrow" d="M 100,0 h 100" />
    <text x="105" y="-5">yes</text>
  </g>

  <g transform="translate(400 300)">
    <use href="#input" />
    <text class="caption">Is it question?</text>
    <path class="arrow" d="M 0,20 -222,80" />
    <text x="0" y="35">no</text>
    <path class="arrow" d="M 100,0 h 700" />
    <text x="105" y="-5">yes</text>
  </g>

  <g transform="translate(1300 300)">
    <use href="#result" />
    <text class="caption">Clarif. Request</text>
    <path class="arrow" d="M 100,0 h 100 v 100" />
  </g>

  <g transform="translate(100 400)">
    <use href="#decision" />
    <text class="caption">
      <tspan>Can add</tspan>
      <tspan x="0" dy="1.2em">Confirmation?</tspan>
    </text>
    <path class="arrow" d="M 0,30 v 40" />
    <text x="5" y="50">no</text>
    <path class="arrow" d="M 100,0 h 100" />
    <text x="105" y="-5">yes</text>
  </g>

  <g transform="translate(400 400)">
    <use href="#input" />
    <text class="caption">Is it confirmation?</text>
    <path class="arrow" d="M 0,20 -222,80" />
    <text x="0" y="35">no</text>
    <path class="arrow" d="M 100,0 h 700" />
    <text x="105" y="-5">yes</text>
  </g>

  <g transform="translate(1300 400)">
    <use href="#result" />
    <text class="caption">Confirmation</text>
    <path class="arrow" d="M 100,0 h 100 v 300" />
  </g>

  <g transform="translate(100 500)">
    <use href="#decision" />
    <text class="caption">
      <tspan>Can add</tspan>
      <tspan x="0" dy="1.2em">Rem / Aff / Rev?</tspan>
    </text>
    <path class="arrow" d="M 0,30 v 740" />
    <text x="5" y="50">no</text>
    <path class="arrow" d="M 100,0 h 100" />
    <text x="105" y="-5">yes</text>
  </g>

  <g transform="translate(400 500)">
    <use href="#input" />
    <text class="caption">Is it appeal decision?</text>
    <path class="arrow" d="M -66,20 -300,83" />
    <text x="-66" y="35">no</text>
    <path class="arrow" d="M 0,20 v 60" />
    <text x="5" y="35">yes</text>
  </g>

  <g transform="translate(400 600)">
    <use href="#input" />
    <text class="caption">
      <tspan>Contains appeal info?</tspan>
      <tspan x="0" dy="1.2em" font-style="italic">DL</tspan>
    </text>
    <path class="arrow" d="M 0,20 v 60" />
  </g>

  <g transform="translate(400 700)">
    <use href="#input" />
    <text class="caption">Was it accepted?</text>
    <path class="arrow" d="M 0,20 v 160" />
    <text x="5" y="35">yes, partial</text>
    <path class="arrow" d="M 100,0 h 100" />
    <text x="105" y="-5">no</text>
  </g>

  <g transform="translate(700 700)">
    <use href="#decision" />
    <text class="caption">
      <tspan>Can add</tspan>
      <tspan x="0" dy="1.2em">Affirmation?</tspan>
    </text>
    <path class="arrow" d="M 0,30 v 50" />
    <text x="5" y="50">no</text>
    <path class="arrow" d="M 100,0 h 400" />
    <text x="105" y="-5">yes</text>
  </g>

  <g transform="translate(1300 700)">
    <use href="#result" />
    <text class="caption">Affirmation</text>
    <path class="arrow" d="M 100,0 h 100 v 200" />
  </g>

  <g transform="translate(700 800)">
    <use href="#jump" />
    <text class="caption">H*</text>
  </g>

  <g transform="translate(400 900)">
    <use href="#input" />
    <text class="caption">Was it returned?</text>
    <path class="arrow" d="M 0,20 v 180 h 200" />
    <text x="5" y="35">no</text>
    <path class="arrow" d="M 100,0 h 100" />
    <text x="105" y="-5">yes</text>
  </g>

  <g transform="translate(700 900)">
    <use href="#decision" />
    <text class="caption">
      <tspan>Can add</tspan>
      <tspan x="0" dy="1.2em">Remandment?</tspan>
    </text>
    <path class="arrow" d="M 0,30 v 50" />
    <text x="5" y="50">no</text>
    <path class="arrow" d="M 100,0 h 400" />
    <text x="105" y="-5">yes</text>
  </g>

  <g transform="translate(1300 900)">
    <use href="#result" />
    <text class="caption">Remandment</text>
    <path class="arrow" d="M 100,0 h 100 v 300" />
  </g>

  <g transform="translate(700 1000)">
    <use href="#jump" />
    <text class="caption">H*</text>
  </g>

  <g transform="translate(700 1100)">
    <use href="#decision" />
    <text class="caption">
      <tspan>Can add</tspan>
      <tspan x="0" dy="1.2em">Reversion?</tspan>
    </text>
    <path class="arrow" d="M 0,30 v 50" />
    <text x="5" y="50">no</text>
    <path class="arrow" d="M 100,0 h 170" />
    <text x="105" y="-5">yes</text>
  </g>

  <g transform="translate(1000 1100)">
    <use href="#decision-xs" />
    <text class="caption">DL</text>
    <path class="arrow" d="M 0,30 v 150" />
    <text x="-47" y="43">none</text>
    <path class="arrow" d="M 30,0 h 170" />
    <text x="35" y="-5">partial</text>
    <path class="arrow" d="M 21,21 100,100 h 100" />
    <text x="35" y="33">full</text>
  </g>

  <g transform="translate(1300 1100)">
    <use href="#input" />
    <text class="caption">
      <tspan>Reversion reasons</tspan>
      <tspan x="0" dy="1.2em" font-style="italic">RR</tspan>
    </text>
    <path class="arrow" d="M 0,20 v 60" />
  </g>

  <g transform="translate(1300 1200)">
    <use href="#result" />
    <text class="caption">Reversion</text>
    <path class="arrow" d="M 100,0 h 100 v 300" />
  </g>

  <g transform="translate(700 1200)">
    <use href="#jump" />
    <text class="caption">H*</text>
  </g>

  <g transform="translate(1000 1300)">
    <use href="#input" />
    <text class="caption">
      <tspan>Invalid Reversion</tspan>
      <tspan x="0" dy="1.2em" font-style="italic">Help ticket</tspan>
    </text>
    <path class="arrow" d="M 100,0 h 100" />
  </g>

  <g transform="translate(1300 1300)">
    <use href="#result" />
    <text class="caption">Help</text>
  </g>

  <g transform="translate(100 1300)">
    <use href="#decision" />
    <text class="caption">
      <tspan>Can add</tspan>
      <tspan x="0" dy="1.2em">Dis / Ref / Adv / Ext?</tspan>
    </text>
    <path class="arrow" d="M 0,30 v 950" />
    <text x="5" y="50">no</text>
    <path class="arrow" d="M 100,0 h 100" />
    <text x="105" y="-5">yes</text>
  </g>

  <g transform="translate(400 1300)">
    <use href="#input" />
    <text class="caption">Is on topic?</text>
    <path class="arrow" d="M -66,20 -300,83" />
    <text x="-66" y="35">no</text>
    <path class="arrow" d="M 0,20 v 60" />
    <text x="5" y="35">yes</text>
  </g>

  <g transform="translate(400 1400)">
    <use href="#input" />
    <text class="caption">
      <tspan>Contains info?</tspan>
      <tspan x="0" dy="1.2em" font-style="italic">DL</tspan>
    </text>
    <path class="arrow" d="M -100,0 h -50 v 700 h 150" />
    <text x="-132" y="-5">full</text>
    <path class="arrow" d="M 0,20 v 60" />
    <text x="5" y="40">none, partial</text>
  </g>

  <g transform="translate(400 1500)">
    <use href="#input" />
    <text class="caption">Is it decision?</text>
    <path class="arrow" d="M 0,20 v 160" />
    <text x="5" y="35">no</text>
    <path class="arrow" d="M 100,0 h 100" />
    <text x="105" y="-5">yes</text>
  </g>

  <g transform="translate(700 1500)">
    <use href="#decision" />
    <text class="caption">
      <tspan>Can add</tspan>
      <tspan x="0" dy="1.2em">Refusal?</tspan>
    </text>
    <path class="arrow" d="M 0,30 v 50" />
    <text x="5" y="50">no</text>
    <path class="arrow" d="M 100,0 h 100" />
    <text x="105" y="-5">yes</text>
  </g>

  <g transform="translate(1000 1500)">
    <use href="#input" />
    <text class="caption">
      <tspan>Refusal reasons</tspan>
      <tspan x="0" dy="1.2em" font-style="italic">RR</tspan>
    </text>
    <path class="arrow" d="M 100,0 h 100" />
  </g>

  <g transform="translate(1300 1500)">
    <use href="#result" />
    <text class="caption">Refusal</text>
    <path class="arrow" d="M 100,0 h 100 v 200" />
  </g>

  <g transform="translate(700 1600)">
    <use href="#jump" />
    <text class="caption">H*</text>
  </g>

  <g transform="translate(400 1700)">
    <use href="#input" />
    <text class="caption">
      <tspan>Is it advancement?</tspan>
      <tspan x="0" dy="1.2em"><tspan font-style="italic">AO</tspan> if yes</tspan>
    </text>
    <path class="arrow" d="M 0,20 v 160" />
    <text x="5" y="35">no</text>
    <path class="arrow" d="M 100,0 h 100" />
    <text x="105" y="-5">yes</text>
  </g>

  <g transform="translate(700 1700)">
    <use href="#decision" />
    <text class="caption">
      <tspan>Can add</tspan>
      <tspan x="0" dy="1.2em">Advancement?</tspan>
    </text>
    <path class="arrow" d="M 0,30 v 50" />
    <text x="5" y="50">no</text>
    <path class="arrow" d="M 100,0 h 400" />
    <text x="105" y="-5">yes</text>
  </g>

  <g transform="translate(1300 1700)">
    <use href="#result" />
    <text class="caption">Advancement</text>
    <path class="arrow" d="M 100,0 h 100 v 200" />
  </g>

  <g transform="translate(700 1800)">
    <use href="#jump" />
    <text class="caption">H*</text>
  </g>

  <g transform="translate(400 1900)">
    <use href="#input" />
    <text class="caption">
      <tspan>Is it extension?</tspan>
      <tspan x="0" dy="1.2em"><tspan font-style="italic">EX</tspan> if yes</tspan>
    </text>
    <path class="arrow" d="M 0,20 v 180 h 200" />
    <text x="5" y="35">no</text>
    <path class="arrow" d="M 100,0 h 100" />
    <text x="105" y="-5">yes</text>
  </g>

  <g transform="translate(700 1900)">
    <use href="#decision" />
    <text class="caption">
      <tspan>Can add</tspan>
      <tspan x="0" dy="1.2em">Extension?</tspan>
    </text>
    <path class="arrow" d="M 0,30 v 50" />
    <text x="5" y="50">no</text>
    <path class="arrow" d="M 100,0 h 400" />
    <text x="105" y="-5">yes</text>
  </g>

  <g transform="translate(1300 1900)">
    <use href="#result" />
    <text class="caption">Extension</text>
    <path class="arrow" d="M 100,0 h 100 v 300" />
  </g>

  <g transform="translate(700 2000)">
    <use href="#jump" />
    <text class="caption">H*</text>
  </g>

  <g transform="translate(700 2100)">
    <use href="#decision" />
    <text class="caption">
      <tspan>Can add</tspan>
      <tspan x="0" dy="1.2em">Disclosure?</tspan>
    </text>
    <path class="arrow" d="M 0,30 v 50" />
    <text x="5" y="50">no</text>
    <path class="arrow" d="M 100,0 h 170" />
    <text x="105" y="-5">yes</text>
  </g>

  <g transform="translate(1000 2100)">
    <use href="#decision-xs" />
    <text class="caption">DL</text>
    <path class="arrow" d="M 0,30 v 70 h 200" />
    <text x="5" y="50">full</text>
    <path class="arrow" d="M 30,0 h 170" />
    <text x="35" y="-5">none, partial</text>
  </g>

  <g transform="translate(1300 2100)">
    <use href="#input" />
    <text class="caption">
      <tspan>Disclosure reasons</tspan>
      <tspan x="0" dy="1.2em" font-style="italic">RR</tspan>
    </text>
    <path class="arrow" d="M 0,20 v 60" />
  </g>

  <g transform="translate(1300 2200)">
    <use href="#result" />
    <text class="caption">Disclosure</text>
    <path class="arrow" d="M 100,0 h 100 v 80" />
  </g>

  <g transform="translate(700 2200)">
    <use href="#jump" />
    <text class="caption">H*</text>
  </g>

  <g transform="translate(200 2200)">
    <use href="#jump" />
    <text class="caption">H*</text>
    <path class="arrow" d="M -30,0 h -70" />
  </g>

  <g transform="translate(100 2300)">
    <use href="#input" />
    <text class="caption">
      <tspan>Not categorized</tspan>
      <tspan x="0" dy="1.2em" font-style="italic">Help ticket</tspan>
    </text>
    <path class="arrow" d="M 100,0 h 100" />
    <text x="105" y="-5">help</text>
    <path class="arrow" d="M 0,20 v 80 h 200" />
    <text x="5" y="40">no help</text>
  </g>

  <g transform="translate(400 2300)">
    <use href="#result" />
    <text class="caption">Help</text>
  </g>

  <g transform="translate(400 2400)">
    <use href="#result" />
    <text class="caption">Skip</text>
  </g>

  <g transform="translate(1500 2300)">
    <use href="#input" />
    <text class="caption">
      <tspan>Categorized</tspan>
      <tspan x="0" dy="1.2em" font-style="italic">LD, FN, PA DD</tspan>
    </text>
  </g>

  <g transform="translate(600 2280)">
    <rect x="0" y="0" width="700" height="220" fill="none" stroke="black" stroke-width="1pt" stroke-dasharray="2pt" />
    <text x="25" y="40">Legend:</text>
    <g transform="translate(125 95)">
      <use href="#decision" />
      <text class="caption">
        <tspan>Programic</tspan>
        <tspan x="0" dy="1.2em">decision</tspan>
      </text>
    </g>
    <g transform="translate(125 169)">
      <use href="#input" />
      <text class="caption">
        <tspan>User decision</tspan>
        <tspan x="0" dy="1.2em" font-style="italic">User input</tspan>
      </text>
    </g>
    <g transform="translate(350 95)">
      <use href="#result" />
      <text class="caption">Result</text>
    </g>
    <g transform="translate(350 169)">
      <use href="#jump" />
      <text class="caption">Jump</text>
    </g>
    <g transform="translate(475 40)">
      <text>
        <tspan x="0">DD - Delivered Date</tspan>
        <tspan x="0" dy="1.2em">LD - Legal Date</tspan>
        <tspan x="0" dy="1.2em">AT - Attachments</tspan>
        <tspan x="0" dy="1.2em">FN - File Number</tspan>
        <tspan x="0" dy="1.2em">DL - Disclosure Level</tspan>
        <tspan x="0" dy="1.2em">RR - Refusal Reasons</tspan>
        <tspan x="0" dy="1.2em">AO - Advanced Obligees</tspan>
        <tspan x="0" dy="1.2em">EX - Extension</tspan>
        <tspan x="0" dy="1.2em">PA - Previous Action</tspan>
      </text>
    </g>
  </g>

</svg>
